/* XPM */
static char *_eadb206b0b0400af80db819d03d1f783ObFtlrZ1xAoh4sJ[] = {
/* columns rows colors chars-per-pixel */
"50 50 76 1 ",
"  c #000017",
". c #00031A",
"X c #00051B",
"o c #00071D",
"O c #000A21",
"+ c #000E25",
"@ c #00132B",
"# c #00142C",
"$ c #001A32",
"% c #011E37",
"& c #01233B",
"* c #01263E",
"= c #012B44",
"- c #012C46",
"; c #012F4A",
": c #013049",
"> c #01344D",
", c #013851",
"< c #013954",
"1 c #013C57",
"2 c #013C58",
"3 c #1F1C99",
"4 c #026481",
"5 c #02728F",
"6 c #027491",
"7 c #027B99",
"8 c #127691",
"9 c #575699",
"0 c #342FF5",
"q c #3732FF",
"w c #3845FD",
"e c #0282A1",
"r c #038AA8",
"t c #038FAF",
"y c #0391B0",
"u c #0395B4",
"i c #039CBC",
"p c #03A0C1",
"a c #03A8C9",
"s c #03AACC",
"d c #03B5D6",
"f c #04B9DC",
"g c #04BDDF",
"h c #0BBDDF",
"j c #04BEE1",
"k c #04C1E3",
"l c #04C3E5",
"z c #04C5E7",
"x c #04CDF0",
"c c #0CCDF0",
"v c #12CFF0",
"b c #20CFF0",
"n c #21D1F0",
"m c #2ED3F2",
"M c #30D1F1",
"N c #3AD3F1",
"B c #3DD5F1",
"V c #4DD8F3",
"C c #58D7F2",
"Z c #53D9F4",
"A c #69DEF5",
"S c #8F8F99",
"D c #9B98FF",
"F c #9BA2FE",
"G c #B4B2FF",
"H c #9CE9F8",
"J c #A1ECF9",
"K c #B3ECF9",
"L c #BFF2FA",
"P c #CDCBFF",
"I c #DAD9FF",
"U c #C3F3FB",
"Y c #C4F3FB",
"T c #F5F9FD",
"R c #FBFCFE",
"E c white",
/* pixels */
"                                                  ",
"                                                  ",
"                                                  ",
"                                                  ",
"                                                  ",
"                   #$$$$$$$$$$#                   ",
"                   exxxxxxxxxx7                   ",
"                   exxxxxxxxxx7                   ",
"             .44444pxxxxxxxxxxi44444.             ",
"             oxxxxxxxxxxxxxxxxxxxxxxo             ",
"             oxxxxxxxxxxxxxxxxxxxxxxo             ",
"           sffxxxxxxxxxxxxxxxxxxxxxxffa           ",
"           jxxxxxxxxxxxxxxxxxxxxxxxxxxf           ",
"        .XXjxxxxxxxxxxxxxxxxxxxxxxxxxxfXX.        ",
"        5xxxxxxxxNEEEEENxxxxxxxxxnEEEEEZx5        ",
"        6xxxxxxxxNEEEEENxxxxxxxxxnEEEEEZx6        ",
"        6xxxxxxnbVEEEEECnnxxxxxvnBEEEEEAn8        ",
"        6xxxxxxUEEEEEEEEEExxxxxJEEEEEEEEES        ",
"        6xxxxxxUEEEEEEEEEExxxxxJEEEEEEEEES        ",
"        6xxxxxxUEEEEPDDDDFxxxxxJEEEEIDDDD9        ",
"        6xxxxxxUEEEEDqqqqwxxxxxJEEEEGqqqq3        ",
"        6xxxxxxUEEEEDqqqqwxxxxxJEEEEGqqqq3        ",
"     %ggzxxxxxxUEEEEDqqqqwxxxxxJEEEEGqqqq0hg%     ",
"     &xxxxxxxxxUEEEEDqqqqwxxxxxJEEEEGqqqqqcx&     ",
"     &xxxxxxxxxKTREEDqqqqwxxxxxHTTEEGqqqqqcx&     ",
"     &xxxxxxxxxxxNEEEEEBxxxxxxxxxnEEEEEZxxxx&     ",
"     &xxxxxxxxxxxNEEEEEBxxxxxxxxxnEEEEEZxxxx&     ",
"     &xxxxxxxxxxxmYLLUYMxxxxxxxxxnYLLUYBxxxx&     ",
"     &xxxxxxxxxxxxxxxxxxxxxxxxxxxxxxxxxxxxxx&     ",
"     &xxxxxxxxxxxxxxxxxxxxxxxxxxxxxxxxxxxxxx&     ",
"     &xxxxxxxxxxxxxxxxxxxxxxxxxxxxxxxxxxxxxx&     ",
"     &xxxxxxxxxxxxxxxxxxxxxxxxxxxxxxxxxxxxxx&     ",
"     &xxxxxxxxxxxxxxxxxxxxxxxxxxxxxxxxxxxxxx&     ",
"     &xxxxxxxxxxxxxxxxxxxxxxxxxxxxxxxxxxxxxx&     ",
"     &xxxxxxxxxxxxxxxxxxxxxxxxxxxxxxxxxxxxxx&     ",
"     &xxxxxxxxxxxxxxxxxxxxxxxxxxxxxxxxxxxxxx&     ",
"     &xxxxxxxxxxxxxxxxxxxxxxxxxxxxxxxxxxxxxx&     ",
"     &xxxxxxxxxxxxxxxxxxxxxxxxxxxxxxxxxxxxxx&     ",
"     &xxxxxlkkxxxxxxxxlkkkklxxxxxxxxkklxxxxx%     ",
"     &xxxxx<.Oxxxxxxxx:....>xxxxxxxxO.2xxxxx%     ",
"     &xxxxx, oxxxxxxxx:    >xxxxxxxxo 1xxxxx&     ",
"     &xxdrr= orryxxxxx:    >xxxxxtrro -rrdxx&     ",
"     &xxu..   ..;xxxxx:    >xxxxx*..   ..uxx&     ",
"     &xxu       :xxxxx:    >xxxxx*       uxx&     ",
"     +<<-       @<<<<<@    #<<<<<+       -<<+     ",
"                                                  ",
"                                                  ",
"                                                  ",
"                                                  ",
"                                                  "
};
