/* XPM */
static char *result[] = {
/* columns rows colors chars-per-pixel */
"50 50 110 2 ",
"   c #000017",
".  c #010117",
"X  c #010118",
"o  c #020218",
"O  c #030318",
"+  c #00031A",
"@  c #00051B",
"#  c #01051B",
"$  c #040418",
"%  c #04061A",
"&  c #00071C",
"*  c #04081C",
"=  c #040B20",
"-  c #040D21",
";  c #040E23",
":  c #080B2A",
">  c #041227",
",  c #00122A",
"<  c #04162B",
"1  c #00182F",
"2  c #04182D",
"3  c #04192F",
"4  c #13142E",
"5  c #011A33",
"6  c #041B30",
"7  c #041C32",
"8  c #041D32",
"9  c #011B34",
"0  c #011D36",
"q  c #031F36",
"w  c #041E34",
"e  c #041F35",
"r  c #1D1D31",
"t  c #1D1D32",
"y  c #012037",
"u  c #032036",
"i  c #042036",
"p  c #042B41",
"a  c #04364D",
"s  c #044B65",
"d  c #044C65",
"f  c #045671",
"g  c #025E7A",
"h  c #025F7B",
"j  c #04617C",
"k  c #026C88",
"l  c #026D89",
"z  c #116F89",
"x  c #027592",
"c  c #047793",
"v  c #027B9A",
"b  c #027C9B",
"n  c #3732FF",
"m  c #048CAA",
"M  c #0397B7",
"N  c #0497B6",
"B  c #039BBC",
"V  c #04A1C1",
"C  c #04A2C1",
"Z  c #03A4C5",
"A  c #03A6C8",
"S  c #04ACCD",
"D  c #04B7D9",
"F  c #04B7DA",
"G  c #04B9DB",
"H  c #04BBDD",
"J  c #04BDDF",
"K  c #11BBDD",
"L  c #04C2E4",
"P  c #04C3E4",
"I  c #04C3E5",
"U  c #04CDF0",
"Y  c #12CDF0",
"T  c #12CFF0",
"R  c #20CFF0",
"E  c #20D0F0",
"W  c #21D1F0",
"Q  c #21D1F1",
"!  c #22D1F0",
"~  c #22D2F0",
"^  c #3FD5F0",
"/  c #48D9F4",
"(  c #51D9F4",
")  c #54D9F4",
"_  c #58DAF4",
"`  c #63DBF4",
"'  c #63DDF5",
"]  c #6CDEF5",
"[  c #6FDFF4",
"{  c #6EDFF5",
"}  c #6DE0F6",
"|  c #9B98FF",
" . c #B4B2FF",
".. c #82E1F5",
"X. c #8BE5F7",
"o. c #93E7F8",
"O. c #A1EAF9",
"+. c #CDCCFF",
"@. c #DAD9FF",
"#. c #C9F3FB",
"$. c #D0F5FC",
"%. c #DFF7FC",
"&. c #E7FBFD",
"*. c #EFFBFD",
"=. c #EFFBFE",
"-. c #EFFCFE",
";. c #F0FCFE",
":. c #F1FCFE",
">. c #FEFEFF",
",. c white",
/* pixels */
"                                                                                                    ",
"                                                                                                    ",
"                                                                                                    ",
"                                                                                                    ",
"                                                                                                    ",
"                                      , 1 1 1 1 1 1 1 1 1 1 ,                                       ",
"                                      v U U U U U U U U U U x                                       ",
"                                      b U U U U U U U U U U x                                       ",
"                          + g h h h h B U U U U U U U U U U M h h h h g +                           ",
"                          & U U U U U U U U U U U U U U U U U U U U U U &                           ",
"                          & U U U U U U U U U U U U U U U U U U U U U U &                           ",
"                      A F F U U U U U U U U U U U U U U U U U U U U U U F F Z                       ",
"                      J U U U U U U U U U U U U U U U U U U U U U U U U U U G                       ",
"                + @ @ J U U U U U U U U U U U U U U U U U U U U U U U U U U G # @ +                 ",
"                k U U U U U U U U ) ,.,.,.,.,.` U U U U U U U U U ~ ,.,.,.,.,.X.U k                 ",
"                l U U U U U U U U ) ,.,.,.,.,.] U U U U U U U U U ~ ,.,.,.,.,.o.U l                 ",
"                l U U U U U U Q R ' ,.,.,.,.,...W E U U U U U T W ^ ,.,.,.,.,.O.W z                 ",
"                l U U U U U U &.,.,.,.,.,.,.,.,.,.,.U U U U U $.,.,.,.,.,.,.,.,.,.,.r               ",
"                l U U U U U U &.,.,.,.,.,.,.,.,.,.,.U U U U U $.,.,.,.,.,.,.,.,.,.,.t               ",
"                l U U U U U U &.,.,.,.,.+.| | | | | U U U U U $.,.,.,.,.@.| | | | | 4               ",
"                l U U U U U U &.,.,.,.,.| n n n n n U U U U U $.,.,.,.,. .n n n n n :               ",
"                l U U U U U U &.,.,.,.,.| n n n n n U U U U U $.,.,.,.,. .n n n n n :               ",
"          9 H H I U U U U U U &.,.,.,.,.| n n n n n U U U U U $.,.,.,.,. .n n n n n K H 5           ",
"          y U U U U U U U U U &.,.,.,.,.| n n n n n U U U U U $.,.,.,.,. .n n n n n Y U 0           ",
"          y U U U U U U U U U %.>.>.,.,.| n n n n n U U U U U #.>.>.,.,. .n n n n n Y U 0           ",
"          y U U U U U U U U U U U ( ,.,.,.,.,.[ U U U U U U U U U ~ ,.,.,.,.,.o.U U U U 0           ",
"          y U U U U U U U U U U U ( ,.,.,.,.,.{ U U U U U U U U U ! ,.,.,.,.,.o.U U U U 0           ",
"          y U U U U U U U U U U U / :.*.*.;.;._ U U U U U U U U U E ;.*.=.-.:.} U U U U 0           ",
"          y U U U U U U U U U U U U U U U U U U U U U U U U U U U U U U U U U U U U U U 0           ",
"          y U U U U U U U U U U U U U U U U U U U U U U U U U U U U U U U U U U U U U U 0           ",
"          y U U U U U U U U U U U U U U U U U U U U U U U U U U U U U U U U U U U U U U 0           ",
"          y U U U U U U U U U U U U U U U U U U U U U U U U U U U U U U U U U U U U U U 0           ",
"          y U U U U U U U U U U U U U U U U U U U U U U U U U U U U U U U U U U U U U U 0           ",
"          y U U U U U U U U U U U U U U U U U U U U U U U U U U U U U U U U U U U U U U 0           ",
"          y U U U U U U U U U U U U U U U U U U U U U U U U U U U U U U U U U U U U U U 0           ",
"          u U U U U U U U U U U U U U U U U U U U U U U U U U U U U U U U U U U U U U U q           ",
"          i U U U U U U U U U U U U U U U U U U U U U U U U U U U U U U U U U U U U U U i           ",
"          i U U U U U U U U U U U U U U U U U U U U U U U U U U U U U U U U U U U U U U i           ",
"          i U U U U U U U U U U L j j m U U U U U U U U U U N j j P U U U U U U U U U U i           ",
"        o i U U U U U U U U U U D w < j U U U U U U U U U U c 2 e D U U U U U U U U U U i O         ",
"        o i U U U U U U U U U U D 8 ; j U U U U U U U U U U c > 7 D U U U U U U U U U U i O         ",
"        o i a a j U U U U U d a a 8 ; p a a S U U U U C a a p > 7 a a a U U U U U f a a i O         ",
"        X * * ; s U U U U U a = * * % * * 6 V U U U U C 3 * * % * * * i U U U U U d - * * O         ",
"        X $ $ = s U U U U U a * $ $ $ $ $ 3 V U U U U C 3 $ $ $ $ $ $ i U U U U U d = $ $ O         ",
"        X $ $ = i i i i i i i * $ $ $ $ $ 3 i i i i i i 3 $ $ $ $ $ $ i i i i i i i = $ $ O         ",
"        X $ $ $ $ $ $ $ $ $ $ $ $ $ $ $ $ $ $ $ $ $ $ $ $ $ $ $ $ $ $ $ $ $ $ $ $ $ $ $ $ O         ",
"          . . . . . . . . . . . . . . . . . . . . . . . . . . . . . . . . . . . . . . . . .         ",
"                                                                                                    ",
"                                                                                                    ",
"                                                                                                    "
};
