/* XPM */
static char *_797f8122a1843f3cfdf11bce6eb5d07y6HD0vhee0HLgxoM[] = {
/* columns rows colors chars-per-pixel */
"50 50 25 1 ",
"  c None",
". c #312F31",
"X c #313031",
"o c #323032",
"O c #323132",
"+ c #313235",
"@ c #303335",
"# c #313335",
"$ c #2F5662",
"% c #2F5663",
"& c #2F5967",
"* c #2ABEF1",
"= c #2ABFF1",
"- c #29BEF2",
"; c #29BFF2",
": c #2ABEF2",
"> c #2ABFF2",
", c #2BBFF2",
"< c #2ABFF3",
"1 c #2BBFF3",
"2 c #2CBFF3",
"3 c #2AC0F2",
"4 c #2BC0F2",
"5 c #2AC0F3",
"6 c #2BC0F3",
/* pixels */
"                                                  ",
"                                                  ",
"                  66666666666666                  ",
"                  >>>>>>>>>>>>>>                  ",
"                  >>>>>>>>>>>>>>                  ",
"           6666666>>>>>>>>>>>>>>6666666           ",
"           >>>>>>>>>>>>>>>>>>>>>>>>>>>>           ",
"           >>>>>>>>>>>>>>>>>>>>>>>>>>>>           ",
"           >>>>>>>>>>>>>>>>>>>>>>>>>>>>           ",
"       6>>>>>>>>>>>>>>>>>>>>>>>>>>>>>>>>>>6       ",
"       6>>>>>>>>>>>>>>>>>>>>>>>>>>>>>>>>>>6       ",
"       6>>>>>>>>>>>>>>>>>>>>>>>>>>>6>>>>>>>       ",
"    >>>>>>>>>>       6>>>>>>>>>>>>>6       >>>    ",
"    >>>>>>>>>>       6>>>>>>>>>>>>>6       >>>    ",
"    >>>>>>>>>>       6>>>>>>>>>>>>>6       >>>    ",
"    >>>>>>6              >>>>>>>                  ",
"    >>>>>>>              >>>>>>>                  ",
"    >>>>>>>              >>>>>>>                  ",
"    >>>>>>>              >>>>>>>                  ",
"    >>>>>>>       XXXXXXX>>>>>>>       XXXXXXXX   ",
"    >>>>>>>       XXXXXXX>>>>>>>       XXXXXXXX   ",
"    >>>>>>>       XXXXXXX>>>>>>>       X..X.XXX   ",
">>>>>>>>>>>       XXXXXXX>>>>>>>       XXXXXXX$>>>",
">>>>>>>>>>>       XXXXXXX>>>>>>>       XXXXXXX$>>>",
">>>>>>>>>>>       XXX@@@@>>>>>>>       XXXX@@@&>>>",
">>>>>>>>>>>>>>       6>>>>>>>>>>>>>6       >>>>>>>",
">>>>>>>>>>>>>>       6>>>>>>>>>>>>>6       >>>>>>>",
">>>>>>>>>>>>>>       6>>>>>>>>>>>>>6       >>>>>>>",
">>>>>>>>>>>>>>>>>>>>>>>>>>>>>>>>>>>>6666666>>>>>>>",
">>>>>>>>>>>>>>>>>>>>>>>>>>>>>>>>>>>>>>>>>>>>>>>>>>",
">>>>>>>>>>>>>>>>>>>>>>>>>>>>>>>>>>>>>>>>>>>>>>>>>>",
">>>>>>>>>>>>>>>>>>>>>>>>>>>>>>>>>>>>>>>>>>>>>>>>>>",
">>>>>>>>>>>>>>>>>>>>>>>>>>>>>>>>>>>>>>>>>>>>>>>>>>",
">>>>>>>>>>>>>>>>>>>>>>>>>>>>>>>>>>>>>>>>>>>>>>>>>>",
">>>>>>>>>>>>>>>>>>>>>>>>>>>>>>>>>>>>>>>>>>>>>>>>>>",
">>>>>>>>>>>>>>>>>>>>>>>>>>>>>>>>>>>>>>>>>>>>>>>>>>",
">>>>>>>>>>>>>>>>>>>>>>>>>>>>>>>>>>>>>>>>>>>>>>>>>>",
">>>>>>>>>>>>>>>>>>>>>>>>>>>>>>>>>>>>>>>>>>>>>>>>>>",
">>>>>>>>>>>>>>>>>>>>>>>>>>>>>>>>>>>>>>>>>>>>>>>>>>",
">>>>>>>>>>>>>>>>>>>>>>>>>>>>>>>>>>>>>>>>>>>>>>>>>>",
">>>>>>>>>>>>>>>>>>>>>>>>>>>>>>>>>>>>>>>>>>>>>>>>>>",
">>>>>>>    >>>>>>>>>>        >>>>>>>>>>    >>>>>>>",
">>>>>>>    >>>>>>>>>>        >>>>>>>>>>    >>>>>>>",
">>>>>>>    >>>>>>>>>>        >>>>>>>>>>    >>>>>>>",
">>>6662    6666>>>>>>        >>>>>>6666    2666>>>",
">>>           6>>>>>>        >>>>>>6           >>>",
">>>           6>>>>>>        >>>>>>6           >>>",
">>>           6>>>>>>        >>>>>>6           >>>",
"                                                  ",
"                                                  "
};
