/* XPM */
static char *_98cd70d1d9f426f9a76d36619474aaeCtGYY4kcNNMlHICL[] = {
/* columns rows colors chars-per-pixel */
"50 50 125 2 ",
"   c None",
".  c #1E1A2A",
"X  c #231E2B",
"o  c #28222B",
"O  c #4D3F2D",
"+  c #4F412E",
"@  c #52432E",
"#  c #5C4B2E",
"$  c #604E2E",
"%  c #65522F",
"&  c #68542F",
"*  c #6F5A2F",
"=  c #745E30",
"-  c #776030",
";  c #5B5746",
":  c #65614A",
">  c #6E6A4E",
",  c #7E7B56",
"<  c #866C31",
"1  c #8A6F31",
"2  c #8B7031",
"3  c #9C7D32",
"4  c #C2751D",
"5  c #C47720",
"6  c #C67C23",
"7  c #C87E27",
"8  c #C97F29",
"9  c #9F8134",
"0  c #A68533",
"q  c #A98733",
"w  c #AD8A33",
"e  c #B18E33",
"r  c #B69233",
"t  c #C98323",
"y  c #CD8A26",
"u  c #CB832C",
"i  c #D2942A",
"p  c #D59A2C",
"a  c #CE8732",
"s  c #CF8934",
"d  c #D08B34",
"f  c #D18E39",
"g  c #D49334",
"h  c #D79A35",
"j  c #D89E35",
"k  c #D69A39",
"l  c #D8A02E",
"z  c #DBA335",
"x  c #DDAC35",
"c  c #D9A23B",
"v  c #DEB136",
"b  c #E0AF36",
"n  c #E3B436",
"m  c #E7B836",
"M  c #E8B936",
"N  c #E3B73A",
"B  c #E4BA3E",
"V  c #8F8C5F",
"C  c #918E5F",
"Z  c #AF9340",
"A  c #A29657",
"S  c #B8AB5F",
"D  c #959161",
"F  c #A8A162",
"G  c #A7A46A",
"H  c #AAA76B",
"J  c #AAA86B",
"K  c #B0A560",
"L  c #D59A42",
"P  c #D7A047",
"I  c #D7A048",
"U  c #D8A24A",
"Y  c #DAA94E",
"T  c #DCAC51",
"R  c #E5BD43",
"E  c #E1BB5E",
"W  c #E7C34B",
"Q  c #E9C54C",
"!  c #E5C353",
"~  c #E8C953",
"^  c #E9CD5B",
"/  c #EBD15E",
"(  c #E9CF63",
")  c #E5C768",
"_  c #E5C869",
"`  c #ECD462",
"'  c #EDD96A",
"]  c #E9D272",
"[  c #EFDF74",
"{  c #ECDB7A",
"}  c #EFE074",
"|  c #F1E173",
" . c #F2E172",
".. c #F0E175",
"X. c #F1E57B",
"o. c #F1E57D",
"O. c #F1E67E",
"+. c #F2EA81",
"@. c #F2EA82",
"#. c #F6ED83",
"$. c #F1E985",
"%. c #F2EA86",
"&. c #F2EB87",
"*. c #F3EC85",
"=. c #F3EE87",
"-. c #F4EE87",
";. c #F3EF8B",
":. c #F2F18E",
">. c #F4F08C",
",. c #F5F38E",
"<. c #F5F48F",
"1. c #F6F48E",
"2. c #F5F38E",
"3. c #F5F490",
"4. c #F6F590",
"5. c #F6F591",
"6. c #F7F690",
"7. c #F6F791",
"8. c #F6F590",
"9. c #F8F690",
"0. c #F9F790",
"q. c #F9F791",
"w. c #F9F891",
"e. c #FBF991",
"r. c #FCFA91",
/* pixels */
"                                                                                                    ",
"                                                                                                    ",
"                                                                                                    ",
"                                      X X X X X X X X X X X X                                       ",
"                                      X X X X X X X X X X X X                                       ",
"                                      X X X X X X X X X X X X                                       ",
"                          X X X X X O 3 3 3 3 3 9 F J H H H H ; . X X X X                           ",
"                          X X X X X @ v n n n n B #.0.0.0.0.1.: . X X X X X                         ",
"                          X X X X . + x n n n n B @.3.1.1.1.:.: . X X X X X                         ",
"                    X X $ 1 1 1 1 1 9 v n n n n N ^ / / / / / K D D D D D > X X                     ",
"                  X X X - m n n n n n n n n n n n n n n n n n | w.0.0.0.r.C X X X                   ",
"                  X X . = n n n n n n n n n n n n n n n n n N } 3.1.1.1.0.V . . .                   ",
"                  $ - = 0 n n n n n b z z z z z z p p p p p p ! ' ' ' ' ' S , , >                   ",
"            X X X 1 m n n n n n n n x d s s s s a 5 4 4 4 4 4 l n n n n n ` 3.w.G X X X             ",
"            X X X 1 n n n n n n n n x d s s s s a 5 4 4 4 4 4 l n n n n n ` 3.w.G X X X             ",
"            X X X 1 n n n n n b z z j s s s s s s 7 6 6 6 6 6 i l p x n n ~ [ | A X X X             ",
"            X X X 1 n n n n n z s s s s s s s s s s s s s s s 6 4 4 p n n n n n 3 X X X             ",
"            X X . 1 n n n n n z s s s s s s s s s s a s s s s 6 4 4 p n n n n n 3 X X X             ",
"            O @ + 9 n n b x x j s s s s s d g g g P U U f s s 8 5 5 i z z x n n w @ @ O             ",
"      X X X 3 v x v n n z d d s s s s s s d b n B O.>.%.P s s s s s 7 4 4 i n n v x v q o X X       ",
"      X X X 3 n n n n n z s s s s s s s s g n n B @.3.;.I a s s s s 6 4 4 i n n n n n w o X X       ",
"      X X X 3 n n n n n z s s s s s d g g g n n B ..@.O.T L L f s s 8 5 5 i n n n n n w o X X       ",
"      X X X 3 n n n n n z s s s s s g b n n n n n B B R [ %.%.Y a s s a a j n n n n n w o X X       ",
"      X X X 3 n n n n n z s s s s s g n n n n n n n n N X.3.>.T a s s s s j n n n n n w o X X       ",
"      X X X 3 n n n n n z s s s s s g n n n n n n n n N } =.=.Y a s s s s j n n n n n w o X X       ",
"      X X X 3 n n n n n z s s s s s g n n n n n n n n n R R R k s s s s s j n n n n n w o X X       ",
"      X X X 3 n n n n n z s s s s s g n n n n n n n n n n n n g s s s s s j n n n n n w o X X       ",
"      X X X 3 n n n n n z s s s s s g b n n n n n n n n n n n g s s s s s j n n n n n w o X X       ",
"      X X o 9 m n n n n z s s s s s s t t y n n n n n n h g g d s s s s s j n n n n n w o X X       ",
"      X X o 9 m n n n n z s s s s s u 4 4 6 x n n n n n g s s s s s s s s j n n n n n w o X X       ",
"      X X X 3 n v n n n z s d s s s u 4 4 6 x n n n n n g s s s s s s s s j n n n v n w o X X       ",
"            @ $ # 0 n n ! ] ] E s s a u u u y y y g g g d s s s s s h z z x n n e # $ #             ",
"            X X . 1 n n / 3.3.] s s s s s a 4 4 4 a s s s s s s s s z n n n n n 3 X X X             ",
"            X X X 1 n n / 1.3.] s s s s s a 4 4 4 a s s s s s s s s z n n n n n 3 X X X             ",
"            X X X 1 n n R ^ ^ ^ ) _ E d s s u u u s s s s s s h z z x n n n n n 3 X X X             ",
"            X X X 1 n n n n n ~ 1.3.{ f s s s s s s s s s s s z n n n n n n n n 3 X X X             ",
"            X X X 2 M n n n n ~ >.3.{ d a a a a a s s s s s s z n n n n n n n M 3 X X X             ",
"              X X & < < w n n R ` ` ( E E E E E E c j j j j j x n n n n n r < 1 * X X               ",
"                  X X . = n n n n n W >.1.1.1.3.-.R n n n n n n n n n n n < . X X                   ",
"                  X X X - m n n n n Q >.3.3.3.3.=.R n n n n n n n n n n M 1 X X X                   ",
"                    X X % 3 3 3 3 3 Z ' ' ' ' ' ' B n n n n n e 3 3 3 3 3 * X X                     ",
"                          X X X X X @ x n n n n n n n n n n v # X X X X X X                         ",
"                          X X X X X @ v n n n n n n n n n n n $ X X X X X X                         ",
"                          X X X X X O q w w w w w w w w w w w # X X X X X                           ",
"                                      o o o o o o o o o o o o                                       ",
"                                      X X X X X X X X X X X X                                       ",
"                                      X X X X X X X X X X X X                                       ",
"                                                                                                    ",
"                                                                                                    ",
"                                                                                                    "
};
