/* XPM */
static char *_e503adb18e14c92dbbbe0752067033c8ubziu5oAMyt7NjO[] = {
/* columns rows colors chars-per-pixel */
"50 50 44 1 ",
"  c #000017",
". c #171714",
"X c #191914",
"o c #1C1C14",
"O c #3A3A0F",
"+ c #232312",
"@ c #252513",
"# c #292913",
"$ c #2F2F10",
"% c #303010",
"& c #363611",
"* c #42420F",
"= c #737308",
"- c #7F7F08",
"; c #878705",
": c #919104",
"> c #979704",
", c #999903",
"< c #9A9A05",
"1 c #A1A102",
"2 c #A6A601",
"3 c #A0A004",
"4 c #AAAA02",
"5 c #AFAF00",
"6 c #B0B003",
"7 c #B7B700",
"8 c #B8B800",
"9 c #BDBD00",
"0 c #C0C002",
"q c #C4C400",
"w c #CBCB00",
"e c #CCCC00",
"r c #D1D100",
"t c #D7D700",
"y c #DADA00",
"u c #DCDC00",
"i c #E1E100",
"p c #E4E400",
"a c #E8E800",
"s c #EDED00",
"d c #F1F100",
"f c #F7F700",
"g c #F8F800",
"h c #FDFD00",
/* pixels */
"                                                  ",
"                                                  ",
"                                                  ",
"                                                  ",
"                                                  ",
"                                                  ",
"                                                  ",
"                                                  ",
"                                                  ",
"                                                  ",
"                                                  ",
"                                                  ",
"                                                  ",
"                                                  ",
"                                                  ",
"                                                  ",
"                     &-498>=O                     ",
"                   o<errreq86,X                   ",
"                  #0tuipputw072+                  ",
"                 o0tiasddspye072X                 ",
"                 6tiadfggfdptw97;                 ",
"                *euadfghhhfsurq96%                ",
"                -risfghhhhgsitw07=                ",
"                3tpdghhhhhfsiteq8,                ",
"                9rpdghhhhgfauteq85                ",
"                8eisghhhgfsputeq85                ",
"                1qtpdfgffspuyreq8:                ",
"                =8wypsssapuytrw07=                ",
"                %60etuiiuuytreq96O                ",
"                 ;70wrttttrreq97,                 ",
"                 .279qweeeewq972X                 ",
"                  @2790qqqq0972+                  ",
"                   .,67888876;X                   ",
"                     O=:55,=$                     ",
"                                                  ",
"                                                  ",
"                                                  ",
"                                                  ",
"                                                  ",
"                                                  ",
"                                                  ",
"                                                  ",
"                                                  ",
"                                                  ",
"                                                  ",
"                                                  ",
"                                                  ",
"                                                  ",
"                                                  ",
"                                                  "
};
