/* XPM */
static char *dcebead1b94841c0b9d524bb1401893271qpYW11f1AUjPwT[] = {
/* columns rows colors chars-per-pixel */
"50 50 229 2 ",
"   c None",
".  c #000001",
"X  c #0A0D04",
"o  c #100B03",
"O  c #2B290D",
"+  c #3C240C",
"@  c #2E2A11",
"#  c #3A3714",
"$  c #594C10",
"%  c #55521E",
"&  c #6B4A0C",
"*  c #69460D",
"=  c #764705",
"-  c #7A4603",
";  c #764A04",
":  c #794A03",
">  c #74460A",
",  c #78460A",
"<  c #754B0C",
"1  c #7A4C0C",
"2  c #7D5206",
"3  c #6B4613",
"4  c #674915",
"5  c #714512",
"6  c #744C15",
"7  c #7C4C14",
"8  c #665918",
"9  c #7C5313",
"0  c #755516",
"q  c #7C6A1C",
"w  c #6C5020",
"e  c #7C5A25",
"r  c #7E5831",
"t  c #7D6E4C",
"y  c #824F04",
"u  c #834E08",
"i  c #835206",
"p  c #83530B",
"a  c #8B540C",
"s  c #855D09",
"d  c #8A5B09",
"f  c #895407",
"g  c #945C09",
"h  c #81581B",
"j  c #895718",
"k  c #8B670B",
"l  c #94630A",
"z  c #9B6B0B",
"x  c #966208",
"c  c #9B730A",
"v  c #9F7908",
"b  c #876512",
"n  c #996C13",
"m  c #9D7718",
"M  c #A66C0E",
"N  c #AE7B06",
"B  c #AA750B",
"V  c #A57A0D",
"C  c #AD7A0B",
"Z  c #A87009",
"A  c #B47606",
"S  c #B27A05",
"D  c #B5760A",
"F  c #B37A0B",
"G  c #B87A06",
"H  c #A36E11",
"J  c #AB7213",
"K  c #A57A12",
"L  c #AC7B12",
"P  c #AA741D",
"I  c #A77B1B",
"U  c #AA7B1A",
"Y  c #B37A12",
"T  c #B27613",
"R  c #875D2A",
"E  c #8B6B2B",
"W  c #8A6B35",
"Q  c #8F7430",
"!  c #9F7F31",
"~  c #9F7823",
"^  c #A57B26",
"/  c #8B6E48",
"(  c #AD860E",
")  c #B78D0C",
"_  c #B8870C",
"`  c #BC960C",
"'  c #AC8412",
"]  c #A58015",
"[  c #B88917",
"{  c #AF911A",
"}  c #BA9312",
"|  c #BC9D1B",
" . c #A58724",
".. c #B28D2D",
"X. c #B68F22",
"o. c #B99625",
"O. c #B38B34",
"+. c #AB9036",
"@. c #C28309",
"#. c #CA8E0C",
"$. c #C49C0D",
"%. c #C8960B",
"&. c #C48717",
"*. c #C99B14",
"=. c #C49816",
"-. c #D99618",
";. c #D6970C",
":. c #CDA30B",
">. c #C6A40B",
",. c #D4A90D",
"<. c #C7A318",
"1. c #D6AB15",
"2. c #DEBA12",
"3. c #DDBA1D",
"4. c #DEB214",
"5. c #D6B70F",
"6. c #EAAB05",
"7. c #EDA60E",
"8. c #E8AB0C",
"9. c #F1A50D",
"0. c #ECBD09",
"q. c #E8B60B",
"w. c #F1B90E",
"e. c #ECA214",
"r. c #EFAC11",
"t. c #EAA71A",
"y. c #E9BA12",
"u. c #F1A518",
"i. c #C49E2A",
"p. c #C8A528",
"a. c #C7B726",
"s. c #DAB921",
"d. c #D6BB33",
"f. c #E2BD21",
"g. c #BEC01D",
"h. c #DCC617",
"j. c #EBC90C",
"k. c #F2C80B",
"l. c #F4DE06",
"z. c #F8DE06",
"x. c #F5D20D",
"c. c #F4DC0B",
"v. c #F9DE0B",
"b. c #E4CB13",
"n. c #EACB14",
"m. c #E9CA17",
"M. c #F0CC11",
"N. c #EAD412",
"B. c #F3D512",
"V. c #F2DB13",
"C. c #F7DA17",
"Z. c #E7D50F",
"A. c #EFE109",
"S. c #F5E205",
"D. c #F8E204",
"F. c #F6EB05",
"G. c #F5E30B",
"H. c #F9E30B",
"J. c #F6EC0C",
"K. c #FAED0B",
"L. c #F8EC05",
"P. c #F9F206",
"I. c #FDFD06",
"U. c #F6F20C",
"Y. c #FAF30B",
"T. c #FDFC0A",
"R. c #F7F105",
"E. c #E1E71B",
"W. c #E6E718",
"Q. c #F4E313",
"!. c #F5EC13",
"~. c #F9EE10",
"^. c #F4E81C",
"/. c #FBF412",
"(. c #F6F915",
"). c #FCFD13",
"_. c #F7F71D",
"`. c #FAFC1B",
"'. c #F4F510",
"]. c #DDCA22",
"[. c #CECD2D",
"{. c #E5CB21",
"}. c #EFE226",
"|. c #F2E324",
" X c #F6E821",
".X c #FAFB24",
"XX c #F9FA2A",
"oX c #F4E637",
"OX c #FCFC36",
"+X c #F8FA37",
"@X c #DECB4A",
"#X c #DAC656",
"$X c #E1CF53",
"%X c #EEEB4E",
"&X c #F3EF58",
"*X c #F9F45C",
"=X c #FBFD58",
"-X c #F5EF4A",
";X c #E4DB65",
":X c #F1ED6D",
">X c #FDFC63",
",X c #FBF96E",
"<X c #F9F568",
"1X c #EAE071",
"2X c #FBF574",
"3X c #FCFD74",
"4X c #FBFD7B",
"5X c #F7F676",
"6X c #F0EA6B",
"7X c #D1C086",
"8X c #E4D795",
"9X c #FCFE83",
"0X c #FAF888",
"qX c #F8F895",
"wX c #F4EF95",
"eX c #DCCCA4",
"rX c #E5D5B0",
"tX c #FAFEA4",
"yX c #FAFDAA",
"uX c #F8F2A7",
"iX c #FBFCB4",
"pX c #EEE5C7",
"aX c #F4EFCD",
"sX c #FDFCCB",
"dX c #F3EFD7",
"fX c #F3F0D6",
"gX c #FDFFE7",
"hX c #FCFEF4",
"jX c #FDFFFE",
/* pixels */
"                                                                                                    ",
"                                                                                                    ",
"                                                                                                    ",
"                                                                                                    ",
"                                              U C N C  .                                            ",
"                                              ' F S S ]                                             ",
"                                            o.<.:.:.:.<.                                            ",
"                                        P A %.c.v.v.c.B._ D P                                       ",
"                                        U S $.c.c.c.c.x.@.S K                                       ",
"                                        I F *.J.J.U.U.G._ F K                                       ",
"                                        K S <.Y.T.).).U.) Y P                                       ",
"                                        ^ Y <.Y.I.T.T.!.} L ^                                       ",
"                                    O.+.eXrX1X`.I.I.I..X8XrX7XO.+.                                  ",
"                                    C  .pXjXtX`.I.T.I.XXsXjXeXC L                                   ",
"                                    ' X.pXgXqX).T.T.T.+XsXhX8X_ (                                   ",
"                        ^ U L K K 1.n.m.0XtX,X).T.T.I.`.0XtX:Xb.b.=.K I U I                         ",
"                        J S S N S 4.V.Q.2X9X=XT.T.T.T.`.3X9X*XQ.C.*.C T D C ~                       ",
"                        ..X.{ +...d.}.|.*X>X+XT.T.I.T.).=X>X-X|.|.p.....{ {  .                      ",
"        4 3 9 K K K K ' ;X5XwXfXfXuX,X>XXX`.T.T.I.I.I.T.T.(.+X,X2XuXdXaXwX5X#XK K K I m < 5 0       ",
"        6 : f F A A A Y 6X4XyXhXhXiX4X3X.X).T.I.).I.T.I.T.T.OX4X0XsXhXgXqX3X#XS A D D J y : 0       ",
"        6 - d } $.=.i.p.%X=X4XyXyX0X*X&X[.a.[.'.).T.T.'.[.g.[.<X<XqXiXyX3X=X$Xo.i.=.%.[ 2 ; 8       ",
"        6 - z N.N.-X5X2XXXT./..X.X Xc.].# o 8 _.).T.T.}.# X 8 C.G.^..X`.).`.+X,X,XoXc.b.s > 0       ",
"        w > n C.G.&X9X3X.XI.I.I.T.K.l.].@ . % _.T.I.T.E.O . $ V.l.U.T.I.T.T.OX4X9XoXv.b.a - 0       ",
"        t W ! p.>.d.@X@X^.U.P.I.I.L.l.].@ . % (.I.I.T.E.O . $ V.c.U.T.I.U.K.}.#X#Xa.>.| Q E         ",
"              7 ; l N ( j.c.F.I.I.L.l.].@ . % (.I.T.T.E.O . $ V.l.R.T.I.S.l.2.S F d : h             ",
"              7 < l G _ n.C.G.T.I.L.l.].@ . % (.I.T.T.E.O . $ V.l.U.T.I.G.C.3.Y F a > e             ",
"              R e j g l %.,.h.T.I.L.l.{.4 + q (.I.I.T.W.$ + b V.c.K.I.U.5.,.} x x j r               ",
"                    > : M D $.Y.I.J.S.n.l ; ] /.I.I.I.!.k > V c.c.U.I.J.) N z : -                   ",
"                    > ; Z C $.Y.T.J.G.m.l > ] Y.I.I.T.^.k > V c.l.R.I.J.[ L n > 5                   ",
"                        j a ( G.F.K.U.Q.=.&.1.Y.I.I.T.~.=.&.1.~.U.L.F.Z.z d 9                       ",
"                        & - c B.l.K.T.Y.q.9.y.Y.I.I.I.J.r.e.k.T.T.F.v.m.d ; *                       ",
"                        & ; c c.l.J.I./.0.6.j./.I.I.T.~.q.6.j.I.I.F.z.m.s ; &                       ",
"                        > - c c.c.J.I.T.~.H.K.T.I.I.I.T.K.H.U.I.I.F.l.b.s ; &                       ",
"                        3 > c x.l.Y.I.I.T.T.T.I.I.I.I.I.T.I.I.I.I.F.l.b.s , 6                       ",
"                        h 2 v c.S.R.I.I.I.T.T.T.T.T.T.T.T.T.T.I.I.L.H.Z.k y 9                       ",
"                    6 9 H B ` /.T.T.I.T.F.S.S.S.S.S.S.D.S.S.K.I.I.I.T.J.( B n < 6                   ",
"                    ; : Z F >./.I.T.I.T.D.z.v.v.H.H.H.H.D.z.K.T.T.I.I.J.) S z : >                   ",
"                    ; : D @.:.Y.I.T.Y.Y.x.x.m.3.s.s.s.3.M.x.c.Y.Y.I.I.!.%.@.M : >                   ",
"                    > y -.t.y.T.I.J.G.B.q.8.=.i i 2 2 d -.8.0.S.S.P.T./.t.e.&.: >                   ",
"                    , u -.e.0.T.T.K.c.B.r.u.&.: , > > f -.7.w.v.S.U.T./.8.7._ : >                   ",
"                    : u 1.w.k.V.V.j.y.4.&.[ U & 3 * * 7 [ &.*.2.2.n.V.V.0.w.=.; >                   ",
"                    : p f.C.k.8.6.#.F B i ; &           & : g G G ;.7.8.x.B.p.; >                   ",
"                    , p h.G.x.r.9.#.L V p 1 5           4 < d F G -.u.r.B.Q.<.; ;                   ",
"                    ; 1 ' } [ Y T H x b W /             / / E l x J Y F } } m ; ;                   ",
"                    ; : : : - : - - - 6                       ; : : : : - : ; ; ;                   ",
"                    < 1 1 1 1 1 1 1 1 0                       < < < < < < < < 1 <                   ",
"                                                                                                    ",
"                                                                                                    ",
"                                                                                                    ",
"                                                                                                    "
};
