/* XPM */
static char *result[] = {
/* columns rows colors chars-per-pixel */
"200 50 37 1 ",
"  c #0D0417",
". c #040418",
"X c #0A0418",
"o c #140417",
"O c #1C0416",
"+ c #230415",
"@ c #2B0414",
"# c #330414",
"$ c #3B0313",
"% c #5D030F",
"& c #430312",
"* c #4B0311",
"= c #540311",
"- c #5B0310",
"; c #62030F",
": c #6B030E",
"> c #72020E",
", c #7C020D",
"< c #600310",
"1 c #82020C",
"2 c #8B020B",
"3 c #92020B",
"4 c #9B020A",
"5 c #AF0207",
"6 c #A20209",
"7 c #AC0108",
"8 c #B60107",
"9 c #BB0107",
"0 c #B20108",
"q c #C30106",
"w c #CC0105",
"e c #D30104",
"r c #DE0103",
"t c #E20103",
"y c #ED0002",
"u c #F30001",
"i c #FF0000",
/* pixels */
"........................................................................................................................................................................................................",
"........................................................................................................................................................................................................",
"........................................................................................................................................................................................................",
"........................................................................................................................................................................................................",
"........................................................................................................................................................................................................",
"........................................................................................................................................................................................................",
"........................................................................................................................................................................................................",
"........................................................................................................................................................................................................",
"........................................................................................................................................................................................................",
"........................................................................................................................................................................................................",
"........................................................................................................................................................................................................",
"........................................................................................................................................................................................................",
"........................................................................................................................................................................................................",
"........................................................................................................................................................................................................",
"........................................................................................................................................................................................................",
"....................................X.X............++@+o........o++++o.......................................... oOO+++OOo ......oO@Oo.........OOo ...ooO++++++++OOO  X...XOOO++++O+Ooo ................",
"...............3rrrrrtrrrtrr=......@tttrrre=......oryyu3........quyuy-.3rtrrrtrrrrrtrrrtr2.....................eiiiiiiiiiiii+...@uiiiq........4iiiu@.qiiiiiiiiiiiiiiiii2.+iiiiiiiiiiiiiii-..............",
"...............9iiiiiiiiiiii=......#iiiiiii1......oyiii6........tiiii;.4iiiiiiiiiiiiiiiii4.....................yiiiiiiiiiiii#...#iiiie........9iiiu@Xeiiiiiiiiiiiiiiiii2.@iiiiiiiiiiiiiii>..............",
".............$;eie;%*&$####@....o:>3ii=$-uiw=$....ouiiiy>:@..o*:iiiii;.6iiii1;%=*$$#####@X..................O:,ii2$######:ii6:$.$iiiir........qiiiu# riiii,:=*$$####+OX..#iiiit:<<<<<<>iiq>&............",
"............*iiii5..............@iiiiu...eiiiy+...oyiiiiii4..>iiiiiii;.6iiii&...............................;iiii*.......+iiii6.&iiiir........qiiiu@oriiiy@..............$iiiiq...X...+iiiitX...........",
"............,iiii,..............@iiiyq...8yiii$...ouiiiiii6..2iiiiiii;.6iiii&...............................;iiii&.......+iiii5.&iiiir........wiiiu#oriiiu+..............&iiii8.......+iiiito...........",
".........o9wuiy@..............&6eii2.......*iitq=.ouiiiiiiuweuiiiiiii;.6iiii&...............................;iiii&.......+iiii0.$iiiir........eiiii$oriiiy+..............&iiii5.......+iiiiyO...........",
".........otiiiy+..............,iiii,.......&iiii,.ouiiiiiiiiiiiiiiiii;.4iiii&...............................;iiii&.......+iiii9.$iiiit........riiiu$oriiiy+..............&iiii7.......@iiiiyO...........",
".........otiiiy+..............1iiii,.......&iiii,.ouiiiiiiiiiiiiiiiii;.6iiii&...............................;iiii&.......+iiii9.#iiiiuO......+tiiii$otiiiu%@OoX..........*iiii7.....X@=iiiiy@...........",
".........otiiiyO....O4466666o.3iiii1.......&iiii,.oyiiiiiiiiiiiiiiiii;.6iiiiiiutreeeee8.....................;iiii&.......+iiii9.@uiiiiiiO..*iiiiiii$oriiiiiiiiiiiiut7....*iiii5.....,iiiiiiy@...........",
".........oriiitO....Xtiiiiii+.4iiii1.......&iiii1.oyiiiiiiiiiiiiiiiii;.4iiiiiiiiiiiiiit.....................;iiii&.......Oiiii9.+yiiiiii$..:iiiiiii&otiiiiiiiiiiiiii9....*iiii8.....2iiiiiiyO...........",
".........oriiito.....O=eiiii+.6iiii9&$$##$$3iiii1.oyiiiq<<2ii2<;iiiii<.6iiii1;-*&#####@.....................;iiii&.......+iiii9..@$qiiii6,2wiiii8#+Xotiiii,&&&&&&$$@o....=iiiiy43233tir&&$@+............",
".........Xwiiiy .......5iiii+.6iiiiiiiiiiiiiiiii1.oyiii4..@ui@..iiiii<.4iiii&...............................;iiii&.......+iiii9....7iiiiiiiiiiii,...oriiiu@..............-iiiiiiiiiiiiq.................",
"..........5iiit .......0iiii+.6iiiiiiiiiiiiiiiii,.oyiii3.. ero..uiiii%.3iiii&...............................<iiii&.......+iiii8....-qeuiiiiiiir9&...oriiiy@..............<iiiiittuiiiiqX................",
"..........o+4iu72@.....0iiii+.6iiii9@@+@++O:iiii1.oyiii2........tiiii-.4iiii&...............................<iiii&.......+iiii0.......qiiiiiiu......oriiiu+..............:iiii9..;iiiiyq0#..............",
"............=iiii2.....0iiii+.6iiii1.......*iiii1. yiii1........riiii=.3iiii&...............................;iiii*..X....+iiii5.......6iiiiiie......oriiiy+..........X...:iiii6..#iiiiiii:..............",
"............O18ii0+OooO8iiii+.6iiii1.......&iiii1. tiii1........wiiii=.2iiii;++OOooooooooX..................#17ii>ooooooo&iiq1*.......$18iie2=...... eiiiu;@++OoO ooo  X.>iiii6..X>1riiii2@O............",
"...............qiiiyttyiiiii+.6iiii:.......&iiii1..tiii1........wiiii*.2iiiiiiiuyttrtrtrr>.....................uiuttttrttuii&...........@ii=........ eiiiiiiiiuytttrrre,.>iiii4.....3iiiiiiy#...........",
"...............qiiiiiiiiiuuy@.7iiii<.......#iiii1..riiu>........5iiii&.1iiiiiiiiiiiiiiiii4.....................tiiiiiiiiiiii@...........oii@........Xqiiiiiiiiiiiiiiiii8.>iiii6.....3iiiiiii&...........",
"...............$*&&&&&&&$#@@..:31>-o.......o=***@..$$#@X........@->>- .$>>>>:>>>>>>>>>>>>*.....................=;;;;;;;;;;;;X............&$..........$:>>>>>>::::<;;--*@.$1,11=.....@*=;<:<:O...........",
"........................................................................................................................................................................................................",
"........................................................................................................................................................................................................",
"........................................................................................................................................................................................................",
"........................................................................................................................................................................................................",
"........................................................................................................................................................................................................",
"........................................................................................................................................................................................................",
"........................................................................................................................................................................................................",
"........................................................................................................................................................................................................",
"........................................................................................................................................................................................................",
"........................................................................................................................................................................................................",
"........................................................................................................................................................................................................",
"........................................................................................................................................................................................................",
"........................................................................................................................................................................................................",
"........................................................................................................................................................................................................",
"........................................................................................................................................................................................................"
};
