/* XPM */
static char *result[] = {
/* columns rows colors chars-per-pixel */
"50 50 32 1 ",
"  c #000017",
". c #020217",
"X c #050516",
"o c #151414",
"O c #1B1A14",
"+ c #2C2A13",
"@ c #312E12",
"# c #353110",
"$ c #353211",
"% c #353212",
"& c #59540E",
"* c #5F5A0E",
"= c #70690C",
"- c #78710D",
"; c #79710D",
": c #7A730C",
"> c #7B730C",
", c #8C830B",
"< c #8C840B",
"1 c #8F880B",
"2 c #90870A",
"3 c #91880A",
"4 c #9C9208",
"5 c #9F9609",
"6 c #A09608",
"7 c #C1B605",
"8 c #C4B905",
"9 c #D9CD03",
"0 c #E3D502",
"q c #E3D503",
"w c #F1E301",
"e c #FFF000",
/* pixels */
"                                                  ",
"                                                  ",
"                                                  ",
"                                                  ",
"               <000000000000000*                  ",
"               4eeeeeeeeeeeeeee=                  ",
"               4eeeeeeeeeeeeeee=                  ",
"        .5555559eeeeeeeeeeeeeee8555551            ",
"        Xeeeeeeeeeeeeeeeeeeeeeeeeeeeeq            ",
"        Xeeeeeeeeeeeeeeeeeeeeeeeeeeeeq            ",
"     O;;>eeeeeeeeeeeeeeeeeeeeeeeeeeeew;;;.        ",
"     #eeeeeeeeeeeeeeeeeeeeeeeeeeeeeeeeeeeX        ",
"     #eeeeeeeeeeeeeeeeeeeeeeeeeeeeeeeeeeeX        ",
"     #eeeeeeeeeeeeeeeeeeeeeeeeeeeeeeeeeeeX        ",
"     #eeeeeeeeeeeeeeeeeeeeeeeeeeeeeeeeeeeX        ",
"     #eeeeeeeeeeeeeeeeeeeeeeeeeeeeeeeeeeeX        ",
"     #eeeeeeeeeeeeeeeeeeeeeeeeeeeeeeeeeeeX        ",
"            0eeeeeeeeeeeeeeeeeeeeeeeeeeeeeee$     ",
"            0eeeeeeeeeeeeeeeeeeeeeeeeeeeeeee$     ",
"            0eeeeeeeeeeeeeeeeeeeeeeeeeeeeeee$     ",
"            @%%%%%%%%&eeeeeeeeeeeeeeeeeeeeee$     ",
"                     +eeeeeeeeeeeeeeeeeeeeee$     ",
"                     +eeeeeeeeeeeeeeeeeeeeee$     ",
"                     o---------7eeeeeeeeeeee$     ",
"                               2eeeeeeeeeeee$     ",
"                               2eeeeeeeeeeee$     ",
"                     o;;;;;;;;;7eeeeeeeeeeee$     ",
"                     +eeeeeeeeeeeeeeeeeeeeee$     ",
"                     +eeeeeeeeeeeeeeeeeeeeee$     ",
"            @%%%%%%%%&eeeeeeeeeeeeeeeeeeeeee$     ",
"            0eeeeeeeeeeeeeeeeeeeeeeeeeeeeeee$     ",
"            0eeeeeeeeeeeeeeeeeeeeeeeeeeeeeee$     ",
"            0eeeeeeeeeeeeeeeeeeeeeeeeeeeeeee$     ",
"     #eeeeeeeeeeeeeeeeeeeeeeeeeeeeeeeeeeeX        ",
"     #eeeeeeeeeeeeeeeeeeeeeeeeeeeeeeeeeeeX        ",
"     #eeeeeeeeeeeeeeeeeeeeeeeeeeeeeeeeeeeX        ",
"     #eeeeeeeeeeeeeeeeeeeeeeeeeeeeeeeeeeeX        ",
"     #eeeeeeeeeeeeeeeeeeeeeeeeeeeeeeeeeeeX        ",
"     #eeeeeeeeeeeeeeeeeeeeeeeeeeeeeeeeeeeX        ",
"     O--:eeeeeeeeeeeeeeeeeeeeeeeeeeeew---.        ",
"        Xeeeeeeeeeeeeeeeeeeeeeeeeeeeeq            ",
"        Xeeeeeeeeeeeeeeeeeeeeeeeeeeeeq            ",
"        .6666669eeeeeeeeeeeeeee8666663            ",
"               4eeeeeeeeeeeeeee=                  ",
"               4eeeeeeeeeeeeeee=                  ",
"               ,000000000000000*                  ",
"                                                  ",
"                                                  ",
"                                                  ",
"                                                  "
};
