/* XPM */
static char *result[] = {
/* columns rows colors chars-per-pixel */
"85 88 229 2 ",
"   c black",
".  c #1C0001",
"X  c #1D0303",
"o  c #1E0302",
"O  c #1E0303",
"+  c #1F0503",
"@  c #1F0304",
"#  c #1E0404",
"$  c #1F0404",
"%  c #1E0504",
"&  c #1F0504",
"*  c #1F0505",
"=  c #1E0604",
"-  c #200402",
";  c #210402",
":  c #200503",
">  c #210503",
",  c #220603",
"<  c #240403",
"1  c #250703",
"2  c #260603",
"3  c #200404",
"4  c #200504",
"5  c #200505",
"6  c #210604",
"7  c #250803",
"8  c #260803",
"9  c #250804",
"0  c #280803",
"q  c #280903",
"w  c #290903",
"e  c #2B0903",
"r  c #280A03",
"t  c #2C0A03",
"y  c #2B0C03",
"u  c #2A0C04",
"i  c #3F0600",
"p  c #3F0700",
"a  c #320D03",
"s  c #351003",
"d  c #3B1904",
"f  c #3B1B0A",
"g  c #3D1E10",
"h  c #400800",
"j  c #420A00",
"k  c #430A00",
"l  c #440C00",
"z  c #460E00",
"x  c #411702",
"c  c #481100",
"v  c #491100",
"b  c #441B02",
"n  c #401E04",
"m  c #481A02",
"M  c #531B00",
"N  c #511902",
"B  c #5D2400",
"V  c #512903",
"C  c #5B2801",
"Z  c #5C2801",
"A  c #442512",
"S  c #4C2916",
"D  c #583316",
"F  c #5C3818",
"G  c #602A01",
"H  c #612A01",
"J  c #652D01",
"K  c #693000",
"L  c #6E3601",
"P  c #613804",
"I  c #663C06",
"U  c #673E07",
"Y  c #693D04",
"T  c #713500",
"R  c #7E3F00",
"E  c #7B4101",
"W  c #7E4000",
"Q  c #7E4101",
"!  c #7C4203",
"~  c #7C4303",
"^  c #754D0F",
"/  c #69431E",
"(  c #6C471F",
")  c #755125",
"_  c #834601",
"`  c #864600",
"'  c #8A4900",
"]  c #8A4A00",
"[  c #904D00",
"{  c #8C5102",
"}  c #8C5104",
"|  c #8F560A",
" . c #935000",
".. c #955200",
"X. c #985300",
"o. c #9B5600",
"O. c #975C06",
"+. c #9E5900",
"@. c #A05A00",
"#. c #A15B00",
"$. c #A25C00",
"%. c #A25D00",
"&. c #A35D00",
"*. c #A45D00",
"=. c #A45E00",
"-. c #A55F00",
";. c #A66000",
":. c #A86300",
">. c #A96300",
",. c #A96400",
"<. c #AB6500",
"1. c #A26905",
"2. c #AF6B00",
"3. c #AF6902",
"4. c #AF6B02",
"5. c #B16C01",
"6. c #B26D00",
"7. c #A1700C",
"8. c #A7740C",
"9. c #BF7B01",
"0. c #BC7802",
"q. c #BE7B02",
"w. c #B27809",
"e. c #95743B",
"r. c #97763A",
"t. c #9E7A3C",
"y. c #A17D3E",
"u. c #C07D00",
"i. c #C07D02",
"p. c #C38102",
"a. c #C98705",
"s. c #CC8B01",
"d. c #D49309",
"f. c #D8980B",
"g. c #C78E10",
"h. c #CD9311",
"j. c #CF9916",
"k. c #D29711",
"l. c #D8A014",
"z. c #E3A40E",
"x. c #ECB00F",
"c. c #E2A715",
"v. c #E3A815",
"b. c #EDB112",
"n. c #EEB213",
"m. c #EFB413",
"M. c #F1B512",
"N. c #F2B612",
"B. c #F0B616",
"V. c #F3B919",
"C. c #F2B91A",
"Z. c #F6BA19",
"A. c #F5BC19",
"S. c #F6BC18",
"D. c #F7BC18",
"F. c #F7BE1B",
"G. c #F2BA1D",
"H. c #F7BE1D",
"J. c #F8BF18",
"K. c #F9BF19",
"L. c #F8BE1C",
"P. c #F9BF1D",
"I. c #FAC11C",
"U. c #FBC11D",
"Y. c #FBC21D",
"T. c #F8C01E",
"R. c #FAC11E",
"E. c #FBC11E",
"W. c #FBC21E",
"Q. c #FBC21F",
"!. c #FCC21D",
"~. c #FDC31D",
"^. c #FCC21E",
"/. c #FCC31E",
"(. c #FCC21F",
"). c #FCC31F",
"_. c #FDC31F",
"`. c #FDC41F",
"'. c #FCC220",
"]. c #FDC220",
"[. c #FCC320",
"{. c #FDC320",
"}. c #FCC221",
"|. c #FCC321",
" X c #FCC222",
".X c #FCC322",
"XX c #FDC420",
"oX c #FDC520",
"OX c #FCC421",
"+X c #FEC621",
"@X c #FDC425",
"#X c #FDC629",
"$X c #FDC72A",
"%X c #FDC72C",
"&X c #FDC932",
"*X c #FECD3A",
"=X c #FDCE3D",
"-X c #A58647",
";X c #BDA056",
":X c #CEAC57",
">X c #D3B862",
",X c #FDCF40",
"<X c #FED651",
"1X c #FFD755",
"2X c #FEDA59",
"3X c #FEDA5A",
"4X c #E7CA67",
"5X c #ECCC68",
"6X c #EED470",
"7X c #EFD572",
"8X c #F6DC76",
"9X c #FFE26D",
"0X c #FFE472",
"qX c #FFE575",
"wX c #FFE778",
"eX c #FFE679",
"rX c #FCE67C",
"tX c #FCE67D",
"yX c #FAE87E",
"uX c #FFE87C",
"iX c #FFE97C",
"pX c #FFE97D",
"aX c #FFE97E",
"sX c #FFEA7E",
"dX c #FFEA7F",
"fX c #FFEB80",
"gX c #FFEC80",
"hX c #FFEE81",
"jX c None",
/* pixels */
"jXjXjXjXjX  jXjXjXjXjXjXjXjXjXjXjXjXjXjXjXjXjXjXjXjXjXjXjXjXjXjXjXjXjXjXjXjXjXjXjXjXjXjXjXjXjXjXjXjXjXjXjXjXjXjXjXjXjXjXjXjXjXjXjXjXjXjXjXjXjXjXjXjXjXjXjXjXjXjXjXjXjXjXjX",
"  jXjX  jXjXjXjXjXjXjXjXjXjXjXjXjXjXjXjXjXjXjXjXjXjXjXjXjXjXjXjXjXjXjXjXjXjXjXjXjXjXjXjXjXjXjXjXjXjXjXjXjXjXjXjXjXjXjXjXjXjXjXjXjXjXjXjXjXjXjXjXjXjXjXjXjXjXjXjXjXjXjXjXjX",
"jXjXjXjXjXjXjXjXjXjXjXjXjXjXjXjXjXjXjXjXjXjXjXjXjXjXjXjXjXjXjXjXjXjXjXjXjXjXjXjXjXjXjXjXjXjXjXjXjXjXjXjXjXjXjXjXjXjXjXjXjXjXjXjXjXjXjXjXjXjXjXjXjXjXjXjXjXjXjXjXjXjXjXjXjX",
"jXjXjXjXjXjXjXjXjXjXjXjXjXjXjXjXjXjXjXjXjXjXjXjXjXjXjXjXjXjXjXjXjXjXjXjXjXjXjXjXjXjXjXjXjXjXjXjXjXjXjXjXjXjXjXjXjXjXjXjXjXjXjXjXjXjXjXjXjXjXjXjXjXjXjXjXjXjXjXjXjXjXjXjXjX",
"jXjXjXjXjXjXjXjXjXjXjXjXjXjXjXjXjXjXjXjXjXjXjXjXjXjXjXjXjXjXjXjXjXjXjXjXjXjXjXjXjXjXjXjXjXjXjXjXjXjXjXjXjXjXjXjXjXjXjXjXjXjXjXjXjXjXjXjXjXjXjXjXjXjXjXjXjXjXjXjXjXjXjXjXjX",
"jXjXjXjXjXjXjXjXjXjXjXjXjXjXjXjXjXjXjXjXjXjXjXjXjXjXjXjXjXjXjXjXjXjXjXjXjX& & & & & & & & & & & & & & % jXjXjXjXjXjXjXjXjXjXjXjXjXjXjXjXjXjXjXjXjXjXjXjXjXjXjXjXjXjXjXjXjX",
"jXjXjXjXjXjXjXjXjXjXjXjXjXjXjXjXjXjXjXjXjXjXjXjXjXjXjXjXjXjXjXjXjX& & & 4 4 4 4 4 4 4 4 4 4 4 4 4 4 & & & & & & jXjXjXjXjXjXjXjXjXjXjXjXjXjXjXjXjXjXjXjXjXjXjXjXjXjXjXjXjX",
"jXjXjXjXjXjXjXjXjXjXjXjXjXjXjXjXjXjXjXjXjXjXjXjXjXjXjXjXjXjX& & & & 4 4 o 5XdXdXdXdXdXdXdXdXdXdXdXdXdX4Xo & & & & & & jXjXjXjXjXjXjXjXjXjXjXjXjXjXjXjXjXjXjXjXjXjXjXjXjXjX",
"jXjXjXjXjXjXjXjXjXjXjXjXjXjXjXjXjXjXjXjXjXjXjXjXjXjXjX# & & & 4 @ C.[.|.[.[.[.[.|.[.^.!.!.&XdXdXdXdXdXdXdXdXdXrXq 4 4 4 & & jXjXjXjXjXjXjXjXjXjXjXjXjXjXjXjXjXjXjXjXjXjXjX",
"jXjXjXjXjXjXjXjXjXjXjXjXjXjXjXjXjXjXjXjXjXjXjXjXjX4 & & 4 4 E.[.[.[.[.[.[.[.[.[.[.[.[.[.[.[.[.|.!.!.wXdXdXdXdXdXdXdXfX: 4 4 & & jXjXjXjXjXjXjXjXjXjXjXjXjXjXjXjXjXjXjXjXjX",
"jXjXjXjXjXjXjXjXjXjXjXjXjXjXjXjXjXjXjXjXjXjXjX: & & 4 y [.[.[.[.[.[.[.[.[.[.[.[.[.[.[.[.[.[.[.[.[.[.[.(.!.uXdXdXdXdXdXdXdX) 4 4 & & jXjXjXjXjXjXjXjXjXjXjXjXjXjXjXjXjXjXjX",
"jXjXjXjXjXjXjXjXjXjXjXjXjXjXjXjXjXjXjXjXjXjX& & 4 u [.[.[.[.[.[.[.[.[.[.[.[.[.[.[.[.[.[.[.[.[.[.[.[.[.[.[.[.!.#XdXdXdXdXdXdXdX:X4 4 & $ jXjXjXjXjXjXjXjXjXjXjXjXjXjXjXjXjX",
"jXjXjXjXjXjXjXjXjXjXjXjXjXjXjXjXjXjXjXjX& & 4 4 [.[.[.[.[.[.[.[.[.[.[.[.[.[.[.[.[.[.[.[.[.[.[.[.[.[.[.[.[.[.[.[.(.!.dXdXdXdXdXdXdXF 4 & & jXjXjXjXjXjXjXjXjXjXjXjXjXjXjXjX",
"jXjXjXjXjXjXjXjXjXjXjXjXjXjXjXjXjXjXjX& & & L.[.[.[.[.[.[.[.[.[.[.[.[.[.[.[.[.[.[.[.[.[.[.[.[.[.[.[.[.[.[.[.[.[.[.[.[.[.dXdXdXdXdXdXdX4 4 & jXjXjXjXjXjXjXjXjXjXjXjXjXjXjX",
"jXjXjXjXjXjXjXjXjXjXjXjXjXjXjXjXjXjX& & & !.[.[.[.[.[.[.[.[.[.[.[.[.[.[.[.[.[.[.[.[.[.[.[.[.[.[.[.[.[.[.[.[.[.[.[.[.[.[.^.<XdXdXdXdXdXdXt.4 & & jXjXjXjXjXjXjXjXjXjXjXjXjX",
"jXjXjXjXjXjXjXjXjXjXjXjXjXjXjXjX+ 4 4 x !.[.[.[.[.[.[.[.[.[.[.[.[.[.[.[.[.[.[.[.[.[.[.[.[.[.[.[.[.[.[.[.[.[.[.[.[.[.[.[.[.[.W.dXdXdXdXdXdXdX4 & & jXjXjXjXjXjXjXjXjXjXjXjX",
"jXjXjXjXjXjXjXjXjXjXjXjXjXjXjX4 4 4 %.!.[.[.[.[.[.[.[.[.[.[.[.[.[.[.[.[.[.[.[.[.[.[.[.[.[.[.[.[.[.[.[.[.[.[.[.[.[.[.[.[.[.[.[.|.|.dXdXdXdXdXdX4 & & jXjXjXjXjXjXjXjXjXjXjX",
"jXjXjXjXjXjXjXjXjXjXjXjXjXjX& 4 4 =.6.[.[.[.[.[.[.[.[.[.[.[.[.[.[.[.[.[.[.[.[.[.[.[.[.[.[.[.[.[.[.[.[.[.[.[.[.[.[.[.[.[.[.[.[.[.[.W.dXdXdXdXdXdX4 & & jXjXjXjXjXjXjXjXjXjX",
"jXjXjXjXjXjXjXjXjXjXjXjXjX= 4 4 =.=.~.[.[.[.[.[.[.[.[.[.[.[.[.[.[.[.[.[.[.[.[.[.[.[.[.[.[.[.[.[.[.[.[.[.[.[.[.[.[.[.[.[.[.[.[.[.[.[./.aXdXdXdXdXdX3 4 & jXjXjXjXjXjXjXjXjX",
"jXjXjXjXjXjXjXjXjXjXjXjXjX& 4 =.=.!.[.[.[.[.[.[.[.[.[.[.[.[.[.[.[.[.[.[.[.[.[.[.[.[.[.[.[.[.[.[.[.[.[.[.[.[.[.[.[.[.[.[.[.[.[.[.[.[.[.}.3XdXdXdXdXdX4 & & jXjXjXjXjXjXjXjX",
"jXjXjXjXjXjXjXjXjXjXjXjX& 4 *.=.>.|.[.[.[.[.[.[.[.[.[.[.[.[.[.[.[.[.[.[.[.[.[.[.[.[.[.[.[.[.[.[.[.[.[.[.[.[.[.[.[.[.[.[.[.[.[.[.[.[.[.[.|.&XdXdXdXdXdX4 & $ jXjXjXjXjXjXjX",
"jXjXjXjXjXjXjXjXjXjXjX& 4 ` =.=.!.[.[.[.[.[.[.[.[.[.[.[.[.[.[.[.[.[.[.[.[.[.[.[.[.[.[.[.[.[.[.[.[.[.c h h h p [.[.[.[.[.[.[.[.[.[.[.[.[.[.[.@XdXdXdXdXdX4 & jXjXjXjXjXjXjX",
"jXjXjXjXjXjXjXjXjXjX& 4 e =.=.a.[.[.[.[.[.[.[.[.[.[.[.[.[.[.[.[.[.[.[.[.[.[.[.[.[.[.[.[.[.[.[.[.z h h h h h h h h [.[.[.[.[.[.[.[.[.[.[.[.[.[.*XdXdXdXdXdX& & jXjXjXjXjXjX",
"jXjXjXjXjXjXjXjXjX> 4 4 =.=.=.!.[.[.[.[.[.[.[.[.[.[.[.[.[.[.[.[.[.[.[.[.[.[.[.[.[.[.[.[.[.[.[.h h h h h h h h h h h [.[.[.[.[.[.[.[.[.[.[.[.[.OX0XdXdXdXdX/ & & jXjXjXjXjX",
"jXjXjXjXjXjXjXjXjX& 4 =.=.=.6.[.[.[.[.[.[.[.[.[.[.[.[.[.[.[.[.[.[.[.[.[.[.[.[.[.[.[.[.[.[.[.B h h h h h h h h h h h h [.[.[.[.[.[.[.[.[.[.[.[.[.).dXdXdXdXdX& & * jXjXjXjX",
"jXjXjXjXjXjXjXjX& 4 m =.=.=.W.[.[.[.[.[.[.[.[.[.[.[.[.[.[.[.[.[.[.[.[.[.[.[.[.[.[.[.[.[.[.[.h h h h h h h h h h h h h [.[.[.[.[.[.[.[.[.[.[.[.[.[.W.dXdXdXdXdX& & jXjXjXjX",
"jXjXjXjXjXjXjXjX4 4 =.=.=.=.|.[.[.[.[.[.[.[.[.[.[.[.[.[.[.[.[.[.[.[.[.[.[.[.[.[.[.[.[.[.[.k.h h h h h h h h h h h h h k [.[.[.[.[.[.[.[.[.[.[.[.[.[.W.dXdXdXdXD & & jXjXjX",
"jXjXjXjXjXjXjX& 4 &.=.=.=.N.[.[.[.[.[.[.[.[.[.[.[.[.[.[.[.[.[.[.[.[.[.[.[.[.[.[.[.[.[.[.[.j h h h h h h h h h h h h h h [.[.[.[.[.[.[.[.[.[.[.[.[.[.|.pXdXdXdXdX& & jXjXjX",
"jXjXjXjXjXjXjX4 4 =.=.=.=.W.[.[.[.[.[.[.[.[.[.[.[.[.[.[.[.[.[.[.[.[.[.[.[.[.[.[.[.[.[.[.[.i h h h h h h h h h h h h h h [.[.[.[.[.[.[.[.[.[.[.[.[.[.[.W.dXdXdXdXy.& & jXjX",
"jXjXjXjXjXjX& 4 =.=.=.=.=.|.[.[.[.[.[.[.[.[.[.[.[.[.[.[.[.[.[.[.[.[.[.[.[.[.[.[.[.[.[.[.[.M h h h h h h h h h h h h h h [.[.[.[.[.[.[.[.[.[.[.[.[.[.[.[.#XdXdXdXdX& & jXjX",
"jXjXjXjXjXjX& 4 =.=.=.=.d.[.[.[.[.[.[.[.[.[.[.[.[.[.[.[.[.[.[.[.[.[.[.[.[.[.[.[.[.[.[.[.[.H.h h h h h h h h h h h h h ! [.[.[.[.[.[.[.[.[.[.[.[.[.[.[.[.[.dXdXdXdX( & & jX",
"jXjXjXjXjX& 4  .=.=.=.=.W.[.[.[.[.[.[.[.[.[.[.[.[.[.[.[.[.[.[.[.[.[.[.[.[.[.[.[.[.[.[.[.[.[.h h h h h h h h h h h h h [.[.[.[.[.[.[.[.[.[.[.[.[.[.[.[.[.[.!.dXdXdXdX& & jX",
"jXjXjXjXjX& 4 =.=.=.=.=.W.[.[.[.[.[.[.[.[.[.[.[.[.[.[.[.[.[.[.[.[.[.[.[.[.[.[.[.[.[.[.[.[.[.P.h h h h h h h h h h h L [.[.[.[.[.[.[.[.[.[.[.[.[.[.[.[.[.[.[.dXdXdXdX$ & jX",
"jXjXjXjXjX& & =.=.=.=.=.[.[.[.[.[.[.[.[.[.[.[.[.[.[.[.[.[.[.[.[.[.[.[.[.[.[.[.[.[.[.[.[.[.[.[.O.h h h h h h h h h l [.[.[.[.[.[.[.[.[.[.[.[.[.[.[.[.[.[.[.[.Q.dXdXe.4 ; X ",
"jXjXjXjX& 4 %.=.=.=.=.&.[.[.[.[.[.[.[.[.[.[.[.[.[.[.[.[.XXc.v.XX[.[.[.[.[.[.[.[.[.[.[.[.[.[.[.[.R.h h h h h h h g.[.[.[.[.[.[.[.[.[.[.[.[.[.[.[.[.[.[.[.[.[.(.6X4 4 & & jX",
"jXjXjXjX& 4 =.=.=.=.=.0.[.[.[.[.[.[.[.[.[.[.[.[.[.[.E h h h h h h { [.[.[.[.[.[.[.[.[.[.[.[.[.[.[.[.[.| N ~ +X[.[.[.[.[.[.[.[.[.[.[.[.[.[.[.[.[.[.[.[.[.[.[.& & & & + jXjX",
"jXjXjXjX& 4 =.=.=.=.=.n.[.[.[.[.[.[.[.[.[.[.[.[.[.h h h h h h h h h h [.[.[.[.[.[.[.[.[.[.[.[.[.[.[.[.[.[.[.[.[.[.[.[.[.[.[.[.[.[.[.[.[.[.[.[.[.[.[.[.[.& & & & & jXjXjXjX",
"jXjXjX$ & T =.=.=.=.=.W.[.[.[.[.[.[.[.[.[.[.[.[.h h h h h h h h h h h h [.[.[.[.[.[.[.[.[.[.[.[.[.[.[.[.[.[.[.[.[.[.[.[.[.[.[.[.[.[.[.[.[.[.[.[.[.[.9 & & & & jXjXjXjXjXjX",
"jXjXjX& 4 =.=.=.=.=.=.W.[.[.[.[.[.[.[.[.[.[.[.w.h h h h h h h h h h h h h.[.}.'.[.[.[.[.[.[.[.[.[.[.[.[.[.[.[.[.[.[.[.[.[.[.[.[.[.[.[.[.[.[.[.[.U & & & & jXjXjXjXjXjXjXjX",
"jXjXjX& 4 =.=.=.=.=.=.W.[.[.[.[.[.[.[.[.[.[.[.h h h h h h h h h h h h h h [.}.}.}.}.[.[.[.[.[.[.[.[.[.[.[.[.[.[.[.[.[.[.[.[.[.[.[.[.[.[.[.[.j.& & & & jXjXjXjXjXjXjXjXjXjX",
"jXjXjX& 4 =.=.=.=.=.=.W.[.[.[.[.[.[.[.[.[.[.[.h h h h h h h h h h h h h h [.[.}.}.}.}.[.[.[.[.[.[.[.[.[.[.[.[.[.[.[.[.[.[.[.[.[.[.[.[.[.T.& & & & jXjXjXjXjXjXjXjXjXjXjXjX",
"jXjXjX& 4 =.=.=.=.=.=.W.[.[.[.[.[.[.[.[.[.[.[.h h h h h h h h h h h h h h [.[.[.[.[.[.[.[.[.[.[.[.[.[.[.[.[.[.[.[.[.[.[.[.[.[.[.[.[.[.& & & & + jXjXjXjXjXjXjXjXjXjXjXjXjX",
"jXjXjX& $ =.=.=.=.=.=.W.[.[.[.[.[.[.[.[.[.[.[.h h h h h h h h h h h h h h [.[.[.[.[.[.[.[.[.[.[.[.[.[.}.[.[.}.}.}.}.}.[.[.[.[.[.[.4 & & & & jXjXjXjXjXjXjXjXjXjXjXjXjXjXjX",
"jXjXjX& a =.=.=.=.=.=.W.[.[.[.[.[.[.[.[.[.[.[.h h h h h h h h h h h h h h [.[.[.[.[.[.[.[.[.[.[.[.}.}.[.[.}.[.[.[.[.[.[.[.[.[.d & & & & jXjXjXjXjXjXjXjXjXjXjXjXjXjXjXjXjX",
"jXjXjX& Z =.=.=.=.=.=.K.[.[.[.[.[.[.[.[.[.[.[.h h h h h h h h h h h h h h [.[.[.[.[.[.[.[.[.[.[.[.[.[.[.[.[.[.[.[.[.[.[.[.7.& & & & jXjXjXjXjXjXjXjXjXjXjXjXjXjXjXjXjXjXjX",
"jXjXjX& Q =.=.=.=.=.=.x.[.[.[.[.[.[.[.[.[.[.[.`.h h h h h h h h h h h h [.[.[.[.[.[.[.[.[.[.[.[.[.[.[.[.[.[.[.[.[.[.[.G.& & & & jXjXjXjXjXjXjXjXjXjXjXjXjXjXjXjXjXjXjXjXjX",
"jXjXjX& _ =.=.=.=.=.=.s.[.[.[.[.[.[.[.[.[.[.[.[.K h h h h h h h h h h ~ [.[.[.[.[.[.[.[.[.[.[.[.[.[.[.[.[.[.[.[.[.XX& & & & O jXjXjXjXjXjXjXjXjXjXjXjXjXjXjXjXjXjXjXjXjXjX",
"jXjXjX& H =.=.=.=.=.=.;.[.[.[.[.[.[.[.[.[.[.[.[.[.} h h h h h h h h 1.[.[.[.[.[.[.[.[.[.[.[.[.[.[.[.[.[.[.[.[.[.& & & & & jXjXjXjXjXjXjXjXjXjXjXjXjXjXjXjXjXjXjXjXjXjXjXjX",
"jXjXjX& b =.=.=.=.=.=.=.[.[.[.[.[.}.[.[.[.[.[.[.[.[.[.z h h h h v [.[.[.[.[.[.[.[.[.[.[.[.[.[.[.[.[.[.[.[.[.1 & & & & jXjXjXjXjXjXjXjXjXjXjXjXjXjXjXjXjXjXjXjXjXjXjXjXjXjX",
"jXjXjX& r =.=.=.=.=.=.=.^.[.[.[.[.}.[.[.[.[.[.[.[.[.[.[.[.[.[.[.[.[.[.[.[.[.[.[.[.[.[.[.[.[.[.[.[.[.[.[.I & & & & jXjXjXjXjXjXjXjXjXjXjXjXjXjXjXjXjXjXjXjXjXjXjXjXjXjXjXjX",
"jXjXjX& & =.=.=.=.=.=.=.!.[.[.[.}.[.[.[.[.[.[.[.[.[.[.[.[.[.[.[.[.[.[.[.[.[.[.[.[.[.[.[.[.[.[.[.[.[.l.& & & & jXjXjXjXjXjXjXjXjXjXjXjXjXjXjXjXjXjXjXjXjXjXjXjXjXjXjXjXjXjX",
"jXjXjX& 4 =.=.=.=.=.=.=.Z.[.[.[.}.}.}.[.[.[.[.[.[.[.[.[.[.[.[.[.[.[.[.[.[.[.[.[.[.[.[.[.[.[.[.[.oX& & & & jXjXjXjXjXjXjXjXjXjXjXjXjXjXjXjXjXjXjXjXjXjXjXjXjXjXjXjXjXjXjXjX",
"jXjXjX& 4 =.=.=.=.=.=.=.-.[.[.[.[.}.}.[.[.[.[.[.[.[.[.[.[.[.[.[.[.[.[.[.[.[.[.[.[.[.[.[.[.[.[.& & & & % jXjXjXjXjXjXjXjXjXjXjXjXjXjXjXjXjXjXjXjXjXjXjXjXjXjXjXjXjXjXjXjXjX",
"jXjXjX& & =.=.=.=.=.=.=.=.^.[.[.[.}.}.[.[.[.[.[.[.[.[.[.[.[.[.[.[.[.[.[.[.[.[.[.[.[.[.[.[.4 & & & & jXjXjXjXjXjXjXjXjXjXjXjXjXjXjXjXjXjXjXjXjXjXjXjXjXjXjXjXjXjXjXjXjXjXjX",
"jXjXjX& & -.=.=.=.=.=.=.=.!.[.[.[.}.[.[.[.[.[.[.[.[.[.[.[.[.[.[.[.[.[.[.[.[.[.[.[.[.[.n & & & & jXjXjXjXjXjXjXjXjXjXjXjXjXjXjXjXjXjXjXjXjXjXjXjXjXjXjXjXjXjXjXjXjXjXjXjXjX",
"jXjXjXjX& s =.=.=.=.=.=.=.:.[.[.[.}.[.[.[.[.[.[.[.[.[.[.[.[.[.[.[.[.[.[.[.[.[.[.[.8.& & & & jXjXjXjXjXjXjXjXjXjXjXjXjXjXjXjXjXjXjXjXjXjXjXjXjXjXjXjXjXjXjXjXjXjXjXjXjXjXjX",
"jXjXjXjX& 4 =.=.=.=.=.=.=.=.!.[.[.}.[.[.[.[.[.[.[.[.[.[.[.[.[.[.[.[.[.[.[.[.[.F.& & & & jXjXjXjXjXjXjXjXjXjXjXjXjXjXjXjXjXjXjXjXjXjXjXjXjXjXjXjXjXjXjXjXjXjXjXjXjXjXjXjXjX",
"jXjXjXjX& & =.=.=.=.=.=.=.=.M.[.[.[.}.[.[.[.[.[.[.[.[.[.[.[.[.[.[.[.[.[.[.XX& & & & : jXjXjXjXjXjXjXjXjXjXjXjXjXjXjXjXjXjXjXjXjXjXjXjXjXjXjXjXjXjXjXjXjXjXjXjXjXjXjXjXjXjX",
"jXjXjXjX& & o.=.=.=.=.=.=.=.=.(.[.[.}.}.[.[.[.[.[.[.[.[.[.[.[.[.[.[.[.[.$ & & & & jXjXjXjXjXjXjXjXjXjXjXjXjXjXjXjXjXjXjXjXjXjXjXjXjXjXjXjXjXjXjXjXjXjXjXjXjXjXjXjXjXjXjXjX",
"jXjXjXjXjX& & =.=.=.=.=.=.=.=.S.[.[.}.}.}.[.[.[.[.[.[.[.[.[.[.[.[.[.7 & & & & jXjXjXjXjXjXjXjXjXjXjXjXjXjXjXjXjXjXjXjXjXjXjXjXjXjXjXjXjXjXjXjXjXjXjXjXjXjXjXjXjXjXjXjXjXjX",
"jXjXjXjXjX& & =.=.=.=.=.=.=.=.=.!.[.[.}.}.}.[.[.[.[.[.[.[.[.[.[.P & & & & jXjXjXjXjXjXjXjXjXjXjXjXjXjXjXjXjXjXjXjXjXjXjXjXjXjXjXjXjXjXjXjXjXjXjXjXjXjXjXjXjXjXjXjXjXjXjXjX",
"jXjXjXjXjX& & C =.=.=.=.=.=.=.=.b.[.[.[.[.[.}.[.[.}.[.[.[.[.V.4 & & & & & & & & & & & jXjXjXjXjXjXjXjXjXjXjXjXjXjXjXjXjXjXjXjXjXjXjXjXjXjXjXjXjXjXjXjXjXjXjXjXjXjXjXjXjXjX",
"jXjXjXjXjXjX& & =.=.=.=.=.=.=.=.=.W.[.[.[.[.[.[.[.[.[.[.[.^ 0 $ & ; & 4 & & & & & & & & & & & & & & & & & $ $ jXjXjXjXjXjXjXjXjXjXjXjXjXjXjXjXjXjXjXjXjXjXjXjXjXjXjXjXjXjX",
"jXjXjXjXjXjX& & W =.=.=.=.=.=.=.=.:.[.[.[.[.[.[.[.[.[.[.[.[.[.[.[.'.!.W.$XqXgX7Xr.f $ & & & & & & & & & & & & & & & & & & & & & $ + jXjXjXjXjXjXjXjXjXjXjXjXjXjXjXjXjXjXjX",
"jXjXjXjXjXjXjX& 4 =.=.=.=.=.=.=.=.=.U.[.[.[.[.[.[.[.[.[.[.[.[.[.[.[.[.[.[.[.|.^.!.W.=XiXdXdXdXdXdXfXtX-XA 6 & & & & & & & & & & & & & & & & & & & & & % + jXjXjXjXjXjXjXjX",
"jXjXjXjXjXjXjX& & J =.=.=.=.=.=.=.=.=.W.[.[.[.[.[.[.[.[.[.[.[.[.[.[.[.[.[.[.[.[.[.[.[.[.[.!.!.Y.1XdXdXdXdXdXdXdXdXdXdXdXdXhX;Xg 6 & & & & & & & & & & & & & & & ; ; jXjXjX",
"jXjXjXjXjXjXjXjX& 4 =.=.=.=.=.=.=.=.=.=.W.[.[.[.[.[.[.[.[.[.[.[.[.[.[.[.[.[.[.[.[.[.[.[.[.[.[.[.[.[.[.!.W.(.9XdXdXdXdXdXdXdXdXdXdXdXdXdXdXdXdXdXyX>XS . 4 4 4 & - > jXjXjX",
"jXjXjXjXjXjXjXjX% & & =.=.=.=.=.=.=.=.=.<. X[.[.[.[.[.[.[.[.[.[.[.[.[.[.[.[.[.[.[.[.[.[.[.[.[.[.[.[.[.[.[.[.[.[.).!.W.%XeXdXdXdXdXdXdXdXdXdXdXdXdXdXdXdXdXdX8X& & jXjXjXjX",
"jXjXjXjXjXjXjXjXjX& & +.=.=.=.=.=.=.=.=.=.f.'.[.[.[.[.[.[.[.[.[.[.[.[.[.[.[.[.[.[.[.[.[.[.[.[.[.[.[.[.[.[.[.[.[.[.[.[.[.[.[.^.W.Y.,XsXdXdXdXdXdXdXdXdXdXdXdX4 & jXjXjXjXjX",
"jXjXjXjXjXjXjXjXjXjX& & =.=.=.=.=.=.=.=.=.=.m.|.[.[.[.[.[.[.[.[.[.[.[.[.[.[.[.[.[.[.[.[.[.[.[.[.[.[.[.[.[.[.[.[.[.[.[.[.[.[.[.[.[.[.[.|.^.W.Y.2XdXdXdXdXdX3 4 & jXjXjXjXjX",
"jXjXjXjXjXjXjXjXjXjX4 & 4 =.=.=.=.=.=.=.=.=.=.z.].[.[.[.[.[.[.[.[.[.[.[.[.[.[.[.[.[.[.[.[.[.[.[.[.[.[.[.[.[.[.[.[.[.[.[.[.[.[.[.[.[.[.[.[.[.[.[.[.{.!.!.Y & & jXjXjXjXjXjX",
"jXjXjXjXjXjXjXjXjXjXjX& & 8 =.=.=.=.=.=.=.=.=.=.5._.[.[.[.[.[.[.[.[.[.[.[.[.[.[.[.[.[.[.[.[.[.[.[.[.[.[.[.[.[.[.[.[.[.[.[.[.[.[.[.[.[.[.[.[.[.[.[.[.[.A.& & jXjXjXjXjXjXjX",
"jXjXjXjXjXjXjXjXjXjXjXjX& 4 R =.=.=.=.=.=.=.=.=.=.=.W.[.[.[.[.[.[.[.[.[.[.[.[.[.[.[.[.[.[.[.[.[.[.[.[.[.[.[.[.[.[.[.[.[.[.[.[.[.[.[.[.[.[.[.[.[.[.[.[.4 & jXjXjXjXjXjXjXjX",
"jXjXjXjXjXjXjXjXjXjXjXjXjX& 4 #.=.=.=.=.=.=.=.=.=.=.=.W.[.[.[.[.[.[.[.[.[.[.[.[.[.[.[.[.[.[.[.[.[.[.[.[.[.[.[.[.[.[.[.[.[.[.[.[.[.[.[.[.[.[.[.[.[.[.4 & jXjXjXjXjXjXjXjXjX",
"jXjXjXjXjXjXjXjXjXjXjXjXjXjX& 4 %.=.=.=.=.=.=.=.=.=.=.=.2.W.[.[.[.[.[.[.[.[.[.[.[.[.[.[.[.[.[.[.[.[.[.[.[.[.[.[.[.[.[.[.[.[.[.[.[.[.[.[.[.[.[.[.[.4 4 & jXjXjXjXjXjXjXjXjX",
"jXjXjXjXjXjXjXjXjXjXjXjXjXjXjX& 4 @.=.=.=.=.=.=.=.=.=.=.=.=.J.Q.[.[.[.[.[.[.[.[.[.[.[.[.[.[.[.[.[.[.[.[.[.[.[.[.[.[.[.[.[.[.[.[.[.[.[.[.[.[.[.[.4 4 & jXjXjXjXjXjXjXjXjXjX",
"jXjXjXjXjXjXjXjXjXjXjXjXjXjXjXjX& 4 G =.=.=.=.=.=.=.=.=.=.=.=.=.!.'.[.[.[.[.[.[.[.[.[.[.[.[.[.[.[.[.[.[.[.[.[.[.[.[.[.[.[.[.[.[.[.[.[.[.[.[.B.4 & 3 jXjXjXjXjXjXjXjXjXjXjX",
"jXjXjXjXjXjXjXjXjXjXjXjXjXjXjXjXjX& & , =.=.=.=.=.=.=.=.=.=.=.=.=.=.S.W.[.[.[.[.[.[.[.[.[.[.[.[.[.[.[.[.[.[.[.[.[.[.[.[.[.[.[.[.[.[.[.[.[.V & & jXjXjXjXjXjXjXjXjXjXjXjXjX",
"jXjXjXjXjXjXjXjXjXjXjXjXjXjXjXjXjXjX& & 4 =.=.=.=.=.=.=.=.=.=.=.=.=.=.=.,.W.^.[.[.[.[.[.[.[.[.[.[.[.[.[.[.[.[.[.[.[.[.[.[.[.[.[.[.[.^.!.4 & & jXjXjXjXjXjXjXjXjXjXjXjXjXjX",
"jXjXjXjXjXjXjXjXjXjXjXjXjXjXjXjXjXjXjX& & 4 t =.=.=.=.=.=.=.=.=.=.=.=.=.=.=.=.=.I.W.[.[.[.[.[.[.[.[.[.[.[.[.[.[.[.[.[.[.[.[.[.(.!.9.] & & & jXjXjXjXjXjXjXjXjXjXjXjXjXjXjX",
"jXjXjXjXjXjXjXjXjXjXjXjXjXjXjXjXjXjXjXjXjX& & 4 ' =.=.=.=.=.=.=.=.=.=.=.=.=.=.=.=.=.=.u.^.W.^.|.[.[.[.[.[.[.[.[.[..X^.!.!.D.=.=.=.& & & $ jXjXjXjXjXjXjXjXjXjXjXjXjXjXjXjX",
"jXjXjXjXjXjXjXjXjXjXjXjXjXjXjXjXjXjXjXjXjXjX& & 4 4 &.=.=.=.=.=.=.=.=.=.=.=.=.=.=.=.=.=.=.=.=.=.=.-.4.i.p.q.3.;.=.=.=.=.=.=.=.4 & & & jXjXjXjXjXjXjXjXjXjXjXjXjXjXjXjXjXjX",
"jXjXjXjXjXjXjXjXjXjXjXjXjXjXjXjXjXjXjXjXjXjXjXjX& & 4 4 [ =.=.=.=.=.=.=.=.=.=.=.=.=.=.=.=.=.=.=.=.=.=.=.=.=.=.=.=.=.=.=.#.4 & & & jXjXjXjXjXjXjXjXjXjXjXjXjXjXjXjXjXjXjXjX",
"jXjXjXjXjXjXjXjXjXjXjXjXjXjXjXjXjXjXjXjXjXjXjXjXjXjX& & 4 4 6 =.=.=.=.=.=.=.=.=.=.=.=.=.=.=.=.=.=.=.=.=.=.=.=.=.=.=.1 4 & & & jXjXjXjXjXjXjXjXjXjXjXjXjXjXjXjXjXjXjXjXjXjX",
"jXjXjXjXjXjXjXjXjXjXjXjXjXjXjXjXjXjXjXjXjXjXjXjXjXjXjXjX& & & 4 4 & #.=.=.=.=.=.=.=.=.=.=.=.=.=.=.=.=.=.=.=.$.2 & & & & & jXjXjXjXjXjXjXjXjXjXjXjXjXjXjXjXjXjXjXjXjXjXjXjX",
"jXjXjXjXjXjXjXjXjXjXjXjXjXjXjXjXjXjXjXjXjXjXjXjXjXjXjXjXjXjXjX& & & 4 4 4 4 w ..-.=.=.=.=.=.=.=.=.X.< 4 4 & & & & & jXjXjXjXjXjXjXjXjXjXjXjXjXjXjXjXjXjXjXjXjXjXjXjXjXjXjX",
"jXjXjXjXjXjXjXjXjXjXjXjXjXjXjXjXjXjXjXjXjXjXjXjXjXjXjXjXjXjXjXjXjXjX& & & & & & & & & & & & & & & & & & & & & jXjXjXjXjXjXjXjXjXjXjXjXjXjXjXjXjXjXjXjXjXjXjXjXjXjXjXjXjXjX",
"jXjXjXjXjXjXjXjXjXjXjXjXjXjXjXjXjXjXjXjXjXjXjXjXjXjXjXjXjXjXjXjXjXjXjXjXjXjXjX5 & & & & & & & & & 5 jXjXjXjXjXjXjXjXjXjXjXjXjXjXjXjXjXjXjXjXjXjXjXjXjXjXjXjXjXjXjXjXjXjXjX"
};
