/* XPM */
static char *result[] = {
/* columns rows colors chars-per-pixel */
"50 50 35 1 ",
"  c #000017",
". c #020216",
"X c #020217",
"o c #050516",
"O c #151414",
"+ c #1B1A14",
"@ c #2C2A12",
"# c #312E12",
"$ c #312E13",
"% c #353110",
"& c #353211",
"* c #353212",
"= c #353213",
"- c #59540E",
"; c #5F5A0E",
": c #70690D",
"> c #79710C",
", c #78710D",
"< c #7A730C",
"1 c #8C830A",
"2 c #8B840A",
"3 c #8F870A",
"4 c #8F880B",
"5 c #91880B",
"6 c #9B9208",
"7 c #A09708",
"8 c #A09609",
"9 c #C1B605",
"0 c #C4B904",
"q c #C4B905",
"w c #D9CD03",
"e c #E3D502",
"r c #E3D503",
"t c #F1E302",
"y c #FFF000",
/* pixels */
"                                                  ",
"                                                  ",
"                                                  ",
"                                                  ",
"                                                  ",
"                 &&&&&&&&&&&&&&&&                 ",
"                 yyyyyyyyyyyyyyyy                 ",
"                 yyyyyyyyyyyyyyyy                 ",
"          XooooooyyyyyyyyyyyyyyyyooooooX          ",
"          ,yyyyyyyyyyyyyyyyyyyyyyyyyyyy>          ",
"          ,yyyyyyyyyyyyyyyyyyyyyyyyyyyy>          ",
"          ,yyyyyyyyyyyyyyyyyyyyyyyyyyyy>          ",
"       5eetyyyyyyyyyyyyyyyyyyyyyyyyyyyytee4       ",
"       7yyyyyyyyyyyyyyyyyyyyyyyyyyyyyyyyyy8       ",
"       7yyyyyyyyyyyyyyyyyyyyyyyyyyyyyyyyyy8       ",
"       7yyyyyyyyyyyyyyyyyyyyyyyyyyyyyyyyyy8       ",
"       7yyyyyyyyyyyyyyyyyyyyyyyyyyyyyyyyyy8       ",
"       7yyyyyyyyyyyyyyyyyyyyyyyyyyyyyyyyyy8       ",
"    ;::qyyyyyyyyyyyyyyy9339yyyyyyyyyyyyyyy0::;    ",
"    eyyyyyyyyyyyyyyyyyy>  ,yyyyyyyyyyyyyyyyyyr    ",
"    eyyyyyyyyyyyyyyyyyy>  ,yyyyyyyyyyyyyyyyyyr    ",
"    eyyyyyyyyyyyyyyyyyy>  ,yyyyyyyyyyyyyyyyyyr    ",
"    eyyyyyyyyyyyyyyyyyy>  ,yyyyyyyyyyyyyyyyyyr    ",
"    eyyyyyyyyyyyyyyyyyy>  ,yyyyyyyyyyyyyyyyyyr    ",
"    eyyyyyyyyyyyyyyyyyy>  ,yyyyyyyyyyyyyyyyyyr    ",
"    eyyyyyyyyyyyyyyyyyy>  ,yyyyyyyyyyyyyyyyyyr    ",
"    eyyyyyyyyyyyyyyyyyy>  ,yyyyyyyyyyyyyyyyyyr    ",
"    eyyyyyyyyyyyyyyyyyy>  ,yyyyyyyyyyyyyyyyyyr    ",
"    eyyyyyyyyyyyyyyy-@@O  O@@-yyyyyyyyyyyyyyyr    ",
"    eyyyyyyyyyyyyyyy*        =yyyyyyyyyyyyyyyr    ",
"    eyyyyyyyyyyyyyyy*        =yyyyyyyyyyyyyyyr    ",
"    eyyyyyyyyyyyyyyy*        =yyyyyyyyyyyyyyyr    ",
"    eyyyyyyyyyyyyyyy*        =yyyyyyyyyyyyyyyr    ",
"    eyyyyyyyyyyyyyyy*        =yyyyyyyyyyyyyyyr    ",
"    166wyyyyyyyyyyyy*        =yyyyyyyyyyyyw662    ",
"       7yyyyyyyyyyyy*        =yyyyyyyyyyyy8       ",
"       7yyyyyyyyyyyy*        =yyyyyyyyyyyy8       ",
"       7yyyyyyyyyeee#        $eeeyyyyyyyyy8       ",
"       7yyyyyyyyy                yyyyyyyyy8       ",
"       7yyyyyyyyy                yyyyyyyyy8       ",
"       7yyyyyyyyy                yyyyyyyyy8       ",
"       .oo<yyyyyy                yyyyyy<oo.       ",
"          ,yyyyyy                yyyyyy>          ",
"          ,yyyyyy                yyyyyy>          ",
"          +%%%%%%                %%%%%%+          ",
"                                                  ",
"                                                  ",
"                                                  ",
"                                                  ",
"                                                  "
};
