/* XPM */
static char *result[] = {
/* columns rows colors chars-per-pixel */
"50 50 35 1 ",
"  c #000017",
". c #020216",
"X c #020217",
"o c #050516",
"O c #151414",
"+ c #1B1A14",
"@ c #2D2A12",
"# c #312E12",
"$ c #312E13",
"% c #353110",
"& c #353211",
"* c #353212",
"= c #353213",
"- c #59540E",
"; c #5F5A0E",
": c #6F690D",
"> c #79710C",
", c #78710D",
"< c #7A730C",
"1 c #7A730D",
"2 c #8C830B",
"3 c #8B840B",
"4 c #8F870A",
"5 c #8F870B",
"6 c #90870B",
"7 c #9B9209",
"8 c #A09708",
"9 c #A09609",
"0 c #C1B605",
"q c #C4B905",
"w c #D9CD03",
"e c #E3D502",
"r c #E3D503",
"t c #F1E302",
"y c #FFF000",
/* pixels */
"                                                  ",
"                                                  ",
"                                                  ",
"                                                  ",
"                                                  ",
"          +&&&&&&                &&&&&&+          ",
"          ,yyyyyy                yyyyyy>          ",
"          ,yyyyyy                yyyyyy>          ",
"       Xoo1yyyyyy                yyyyyy<ooX       ",
"       8yyyyyyyyy                yyyyyyyyy9       ",
"       8yyyyyyyyy                yyyyyyyyy9       ",
"       8yyyyyyyyy                yyyyyyyyy9       ",
"       8yyyyyyyyyeee#        $eeeyyyyyyyyy9       ",
"       8yyyyyyyyyyyy*        =yyyyyyyyyyyy9       ",
"       8yyyyyyyyyyyy*        =yyyyyyyyyyyy9       ",
"    277wyyyyyyyyyyyy*        =yyyyyyyyyyyyw773    ",
"    eyyyyyyyyyyyyyyy*        =yyyyyyyyyyyyyyyr    ",
"    eyyyyyyyyyyyyyyy*        =yyyyyyyyyyyyyyyr    ",
"    eyyyyyyyyyyyyyyy*        =yyyyyyyyyyyyyyyr    ",
"    eyyyyyyyyyyyyyyy*        =yyyyyyyyyyyyyyyr    ",
"    eyyyyyyyyyyyyyyy*        =yyyyyyyyyyyyyyyr    ",
"    eyyyyyyyyyyyyyyy-@@O  O@@-yyyyyyyyyyyyyyyr    ",
"    eyyyyyyyyyyyyyyyyyy>  ,yyyyyyyyyyyyyyyyyyr    ",
"    eyyyyyyyyyyyyyyyyyy>  ,yyyyyyyyyyyyyyyyyyr    ",
"    eyyyyyyyyyyyyyyyyyy>  ,yyyyyyyyyyyyyyyyyyr    ",
"    eyyyyyyyyyyyyyyyyyy>  ,yyyyyyyyyyyyyyyyyyr    ",
"    eyyyyyyyyyyyyyyyyyy>  ,yyyyyyyyyyyyyyyyyyr    ",
"    eyyyyyyyyyyyyyyyyyy>  ,yyyyyyyyyyyyyyyyyyr    ",
"    eyyyyyyyyyyyyyyyyyy>  ,yyyyyyyyyyyyyyyyyyr    ",
"    eyyyyyyyyyyyyyyyyyy>  ,yyyyyyyyyyyyyyyyyyr    ",
"    eyyyyyyyyyyyyyyyyyy>  ,yyyyyyyyyyyyyyyyyyr    ",
"    ;::qyyyyyyyyyyyyyyy0440yyyyyyyyyyyyyyyq::;    ",
"       8yyyyyyyyyyyyyyyyyyyyyyyyyyyyyyyyyy9       ",
"       8yyyyyyyyyyyyyyyyyyyyyyyyyyyyyyyyyy9       ",
"       8yyyyyyyyyyyyyyyyyyyyyyyyyyyyyyyyyy9       ",
"       8yyyyyyyyyyyyyyyyyyyyyyyyyyyyyyyyyy9       ",
"       8yyyyyyyyyyyyyyyyyyyyyyyyyyyyyyyyyy9       ",
"       6eetyyyyyyyyyyyyyyyyyyyyyyyyyyyytee5       ",
"          ,yyyyyyyyyyyyyyyyyyyyyyyyyyyy>          ",
"          ,yyyyyyyyyyyyyyyyyyyyyyyyyyyy>          ",
"          ,yyyyyyyyyyyyyyyyyyyyyyyyyyyy>          ",
"          .ooooooyyyyyyyyyyyyyyyyoooooo.          ",
"                 yyyyyyyyyyyyyyyy                 ",
"                 yyyyyyyyyyyyyyyy                 ",
"                 %%%%%%%%%%%%%%%%                 ",
"                                                  ",
"                                                  ",
"                                                  ",
"                                                  ",
"                                                  "
};
