/* XPM */
static char *result[] = {
/* columns rows colors chars-per-pixel */
"50 50 26 1 ",
"  c #000017",
". c #020216",
"X c #020217",
"o c #050516",
"O c #1B1A14",
"+ c #353110",
"@ c #353211",
"# c #5F5A0E",
"$ c #6F690D",
"% c #79710C",
"& c #78710D",
"* c #7A730C",
"= c #7A730D",
"- c #8C830B",
"; c #8B840B",
": c #8F870B",
"> c #90870B",
", c #9B9209",
"< c #A09708",
"1 c #A09609",
"2 c #C4B905",
"3 c #D9CD03",
"4 c #E3D502",
"5 c #E3D503",
"6 c #F1E302",
"7 c #FFF000",
/* pixels */
"                                                  ",
"                                                  ",
"                                                  ",
"                 7777777777777777                 ",
"                 7777777777777777                 ",
"          O@@@@@@7777777777777777@@@@@@O          ",
"          &7777777777777777777777777777%          ",
"          &7777777777777777777777777777%          ",
"       Xoo=7777777777777777777777777777*ooX       ",
"       <77777777777777777777777777777777771       ",
"       <77777777777777777777777777777777771       ",
"       <77777777777777777777777777777777771       ",
"       <77777777777777777777777777777777771       ",
"       <77777777777777777777777777777777771       ",
"       <77777777777777777777777777777777771       ",
"    -,,377777777777777777777777777777777773,,;    ",
"    477777777777777777777777777777777777777775    ",
"    477777777777777777777777777777777777777775    ",
"    477777777777777777777777777777777777777775    ",
"    477777777777777777777777777777777777777775    ",
"    477777777777777777777777777777777777777775    ",
"    477777777777777777777777777777777777777775    ",
"    477777777777777777777777777777777777777775    ",
"    477777777777777777777777777777777777777775    ",
"    477777777777777777777777777777777777777775    ",
"    477777777777777777777777777777777777777775    ",
"    477777777777777777777777777777777777777775    ",
"    477777777777777777777777777777777777777775    ",
"    477777777777777777777777777777777777777775    ",
"    477777777777777777777777777777777777777775    ",
"    477777777777777777777777777777777777777775    ",
"    #$$277777777777777777777777777777777772$$#    ",
"       <77777777777777777777777777777777771       ",
"       <77777777777777777777777777777777771       ",
"       <77777777777777777777777777777777771       ",
"       <77777777777777777777777777777777771       ",
"       <77777777777777777777777777777777771       ",
"       >4467777777777777777777777777777644:       ",
"          &7777777777777777777777777777%          ",
"          &7777777777777777777777777777%          ",
"          &7777777777777777777777777777%          ",
"          .oooooo7777777777777777oooooo.          ",
"                 7777777777777777                 ",
"                 7777777777777777                 ",
"                 ++++++++++++++++                 ",
"                                                  ",
"                                                  ",
"                                                  ",
"                                                  ",
"                                                  "
};
