/* XPM */
static char *result[] = {
/* columns rows colors chars-per-pixel */
"50 50 33 1 ",
"  c #000017",
". c #020217",
"X c #050516",
"o c #151415",
"O c #1B1A14",
"+ c #2C2A12",
"@ c #312D13",
"# c #312E13",
"$ c #353110",
"% c #353211",
"& c #353212",
"* c #59540E",
"= c #5F5A0E",
"- c #6F690D",
"; c #78710D",
": c #79710D",
"> c #7A730D",
", c #8C830B",
"< c #8C840B",
"1 c #8F870A",
"2 c #8F870B",
"3 c #90870A",
"4 c #9B9209",
"5 c #9F9609",
"6 c #A09608",
"7 c #C1B605",
"8 c #C1B606",
"9 c #C4B905",
"0 c #D9CD03",
"q c #E3D502",
"w c #E3D503",
"e c #F1E302",
"r c #FFF000",
/* pixels */
"                                                  ",
"                                                  ",
"                                                  ",
"                                                  ",
"                  =qqqqqqqqqqqqqqq<               ",
"                  -rrrrrrrrrrrrrrr4               ",
"                  -rrrrrrrrrrrrrrr4               ",
"            2555559rrrrrrrrrrrrrrr0555555.        ",
"            qrrrrrrrrrrrrrrrrrrrrrrrrrrrrX        ",
"            qrrrrrrrrrrrrrrrrrrrrrrrrrrrrX        ",
"        .:::errrrrrrrrrrrrrrrrrrrrrrrrrrr>::O     ",
"        Xrrrrrrrrrrrrrrrrrrrrrrrrrrrrrrrrrrr%     ",
"        Xrrrrrrrrrrrrrrrrrrrrrrrrrrrrrrrrrrr%     ",
"        Xrrrrrrrrrrrrrrrrrrrrrrrrrrrrrrrrrrr%     ",
"        Xrrrrrrrrrrrrrrrrrrrrrrrrrrrrrrrrrrr%     ",
"        Xrrrrrrrrrrrrrrrrrrrrrrrrrrrrrrrrrrr%     ",
"        Xrrrrrrrrrrrrrrrrrrrrrrrrrrrrrrrrrrr%     ",
"     $rrrrrrrrrrrrrrrrrrrrrrrrrrrrrrrw            ",
"     $rrrrrrrrrrrrrrrrrrrrrrrrrrrrrrrw            ",
"     $rrrrrrrrrrrrrrrrrrrrrrrrrrrrrrrw            ",
"     $rrrrrrrrrrrrrrrrrrrrrr*&&&&&&&&@            ",
"     $rrrrrrrrrrrrrrrrrrrrrr+                     ",
"     $rrrrrrrrrrrrrrrrrrrrrr+                     ",
"     $rrrrrrrrrrrr8;;;;;;;;;o                     ",
"     $rrrrrrrrrrrr1                               ",
"     $rrrrrrrrrrrr1                               ",
"     $rrrrrrrrrrrr7:::::::::o                     ",
"     $rrrrrrrrrrrrrrrrrrrrrr+                     ",
"     $rrrrrrrrrrrrrrrrrrrrrr+                     ",
"     $rrrrrrrrrrrrrrrrrrrrrr*&&&&&&&&#            ",
"     $rrrrrrrrrrrrrrrrrrrrrrrrrrrrrrrw            ",
"     $rrrrrrrrrrrrrrrrrrrrrrrrrrrrrrrw            ",
"     $rrrrrrrrrrrrrrrrrrrrrrrrrrrrrrrw            ",
"        Xrrrrrrrrrrrrrrrrrrrrrrrrrrrrrrrrrrr%     ",
"        Xrrrrrrrrrrrrrrrrrrrrrrrrrrrrrrrrrrr%     ",
"        Xrrrrrrrrrrrrrrrrrrrrrrrrrrrrrrrrrrr%     ",
"        Xrrrrrrrrrrrrrrrrrrrrrrrrrrrrrrrrrrr%     ",
"        Xrrrrrrrrrrrrrrrrrrrrrrrrrrrrrrrrrrr%     ",
"        Xrrrrrrrrrrrrrrrrrrrrrrrrrrrrrrrrrrr%     ",
"        .;;;errrrrrrrrrrrrrrrrrrrrrrrrrrr>;;O     ",
"            qrrrrrrrrrrrrrrrrrrrrrrrrrrrrX        ",
"            qrrrrrrrrrrrrrrrrrrrrrrrrrrrrX        ",
"            3666669rrrrrrrrrrrrrrr0666666.        ",
"                  -rrrrrrrrrrrrrrr4               ",
"                  -rrrrrrrrrrrrrrr4               ",
"                  =qqqqqqqqqqqqqqq,               ",
"                                                  ",
"                                                  ",
"                                                  ",
"                                                  "
};
