/* XPM */
static char *ae3c3eec6e004363a4dc47f3e1a73dc3dZ73rP0YBWRsDuR2[] = {
/* columns rows colors chars-per-pixel */
"50 50 60 1 ",
"  c None",
". c #314D8A",
"X c #3E60AD",
"o c #3F60AD",
"O c #B08497",
"+ c #B18398",
"@ c #B08498",
"# c #B18498",
"$ c #B7889D",
"% c #B8899F",
"& c #8491AE",
"* c #C493A8",
"= c #C495AA",
"- c #C796AD",
"; c #C895AC",
": c #CD98B0",
"> c #CD99B1",
", c #DAA2BB",
"< c #A28EC0",
"1 c #A993C3",
"2 c #9FAFD6",
"3 c #A6B5D9",
"4 c #E0A7C1",
"5 c #E1A8C2",
"6 c #E2A9C2",
"7 c #EBAFC9",
"8 c #EBB0CA",
"9 c #EDB1CB",
"0 c #EDB0CC",
"q c #EDB1CC",
"w c #EEB0CC",
"e c #EEB1CC",
"r c #EEB1CD",
"t c #F1B3CE",
"y c #F2B4D0",
"u c #F3B5D1",
"i c #F3B5D2",
"p c #F4B5D1",
"a c #F6B8D3",
"s c #F7B8D3",
"d c #F7B8D4",
"f c #F7BBD5",
"g c #F7BCD6",
"h c #F7BCD7",
"j c #F7BDD7",
"k c #F7BED7",
"l c #CACACA",
"z c #F8C2DA",
"x c #D2DAEC",
"c c #FBE1EC",
"v c #FBE1ED",
"b c #FDF1F6",
"n c #FDF5F9",
"m c #FDF6F9",
"M c #FEF6F9",
"N c #FEFAFC",
"B c #FEFBFC",
"V c #FEFBFD",
"C c #FEFEFE",
"Z c white",
/* pixels */
"                                                  ",
"                                                  ",
"                                                  ",
"                                                  ",
"                                                  ",
"                                                  ",
"                   :dddddddddd;                   ",
"                   :dddddddddd;                   ",
"                   6dddddddddd4                   ",
"              dddddddddddddddddddddd              ",
"              dddddddddddddddddddddd              ",
"           8yyddddddddddddddddddddddyy7           ",
"           tddddddddddddddddddddddddddq           ",
"           tddddddddddddddddddddddddddq           ",
"        -dddddddkZZZZZkddddddddddNZZZZmdd-        ",
"        *dddddddkZZZZZkddddddddddNZZZZmdd*        ",
"        *dddddkkzZZZZZzkkddddddkkNZZZZmkk=        ",
"        *dddddZZZZZZZZZZZdddddvZZZZZZZZZZl        ",
"        *dddddZZZZZZZZZZZdddddvZZZZZZZZZZl        ",
"        *dddddZZZZZx33333dddddvZZZZZ33333&        ",
"        *dddddZZZZZ2oooooaaaaavZZZZZooooo.        ",
"        *dddddZZZZZ2oooooaaaaavZZZZZooooo.        ",
"      ppydddddZZZZZ2oooooaaaaavZZZZZooooo<yy      ",
"      ddddddddZZZZZ2oooooaaaaavZZZZZooooo1dd      ",
"      ddddddddZZZZZ2oooooaaaaavZZZZZooooo1dd      ",
"      ddddddddddkZZZZZkaaaaaaaaaaNZZZZmadddd      ",
"      ddddddddddkZZZZZkaaaaaaaaaaNZZZZmadddd      ",
"      ddddddddddkNNNNNkaaaaaaaaaamNNNNbadddd      ",
"      ddddddddddddddaaaaaaaaaaaaaaaaaaaadddd      ",
"      ddddddddddddddaaaaaaaaaaaaaaaaaaaadddd      ",
"      ddddddddddddddaaaaaaaaaaaaaaaaaaaadddd      ",
"      ddddddddddddddaaaaaaaaaaaaaaaaaaaadddd      ",
"      ddddddddddddddaaaaaaaaaaaaaaaaaaaadddd      ",
"      ddddddddddddddaaaaaaaaaaaaaaaaaaaadddd      ",
"      ddddddddddddddaaaaaaaaaaaaaaaaaaaadddd      ",
"      ddddddddddddddaaaaaaaaaaaaaaaaaaaadddd      ",
"      ddddddddddddddaaaaaaaaaaaaaaaaaaaadddd      ",
"      ddddddddddddddaaaaaaaaaaaaaaaaaaaadddd      ",
"      dddddqqqddddddaaq9999qaaaaaaaa99qadddd      ",
"      ddddd   ddddddaa      aaaaaaaa   aaaaa      ",
"      ddddd   dddddddd      ddddddda   aaaaa      ",
"      dd6@@   @@%ddddd      ddddd$@+   OO6aa      ",
"      dd,        ddddd      ddddd        ,aa      ",
"      dd,        ddddd      ddddd        ,aa      ",
"                                                  ",
"                                                  ",
"                                                  ",
"                                                  ",
"                                                  ",
"                                                  "
};
