/* XPM */
static char *result[] = {
/* columns rows colors chars-per-pixel */
"50 50 100 2 ",
"   c #000017",
".  c #010117",
"X  c #010118",
"o  c #020218",
"O  c #030318",
"+  c #05031A",
"@  c #06031B",
"#  c #040418",
"$  c #06061A",
"%  c #08061C",
"&  c #08071C",
"*  c #0C091F",
"=  c #0C0A1F",
"-  c #0E0B21",
";  c #080B2A",
":  c #100C22",
">  c #140F26",
",  c #170F28",
"<  c #13142E",
"1  c #18112A",
"2  c #1A122C",
"3  c #1D132D",
"4  c #1C142D",
"5  c #1E152F",
"6  c #1D1D31",
"7  c #1D1D32",
"8  c #21152F",
"9  c #201730",
"0  c #201631",
"q  c #221732",
"w  c #221832",
"e  c #221833",
"r  c #241934",
"t  c #251934",
"y  c #261A35",
"u  c #32223F",
"i  c #3F2B49",
"p  c #402B4A",
"a  c #5B3D5F",
"s  c #684669",
"d  c #744C72",
"f  c #754D73",
"g  c #764F74",
"h  c #84587F",
"j  c #3732FF",
"k  c #865A80",
"l  c #865E81",
"z  c #906088",
"x  c #916189",
"c  c #99658E",
"v  c #9A658F",
"b  c #AC739E",
"n  c #BA7CA9",
"m  c #BB7CA9",
"M  c #C07FAE",
"N  c #C784B3",
"B  c #CB86B6",
"V  c #CE88B8",
"C  c #D58DBF",
"Z  c #9B98FF",
"A  c #B4B2FF",
"S  c #E396C9",
"D  c #E598CA",
"F  c #E799CC",
"G  c #EA9BCF",
"H  c #F09FD3",
"J  c #F19FD3",
"K  c #F19FD5",
"L  c #FEA8DE",
"P  c #FEADDF",
"I  c #FEAFDE",
"U  c #FEAFDF",
"Y  c #FEB0DF",
"T  c #FEB1E0",
"R  c #FEB1E1",
"E  c #FEBAE2",
"W  c #FEBDE6",
"Q  c #FEBEE6",
"!  c #CDCCFF",
"~  c #DAD9FF",
"^  c #FEC1E6",
"/  c #FEC3E7",
"(  c #FEC5E7",
")  c #FEC7E9",
"_  c #FECBE9",
"`  c #FECBEA",
"'  c #FECAEB",
"]  c #FECFEB",
"[  c #FED2ED",
"{  c #FED6EF",
"}  c #FEDCF1",
"|  c #FEEAF6",
" . c #FEEEF8",
".. c #FEF0F9",
"X. c #FFF7FC",
"o. c #FFF9FC",
"O. c #FFF9FD",
"+. c #FFFEFE",
"@. c #FFFEFF",
"#. c white",
/* pixels */
"                                                                                                    ",
"                                                                                                    ",
"                                                                                                    ",
"                                                                                                    ",
"                                                                                                    ",
"                                      , 3 3 3 3 3 3 3 3 3 3 ,                                       ",
"                                      c L L L L L L L L L L z                                       ",
"                                      v L L L L L L L L L L z                                       ",
"                          + d f f f f M L L L L L L L L L L m f f f f d +                           ",
"                          % L L L L L L L L L L L L L L L L L L L L L L %                           ",
"                          % L L L L L L L L L L L L L L L L L L L L L L %                           ",
"                      V S S L L L L L L L L L L L L L L L L L L L L L L S S B                       ",
"                      G L L L L L L L L L L L L L L L L L L L L L L L L L L D                       ",
"                + @ @ G L L L L L L L L L L L L L L L L L L L L L L L L L L D @ @ +                 ",
"                h L L L L L L L L Q #.#.#.#.#./ L L L L L L L L L R #.#.#.#.#.[ L h                 ",
"                k L L L L L L L L Q #.#.#.#.#.) L L L L L L L L L R #.#.#.#.#.{ L k                 ",
"                k L L L L L L T I ( #.#.#.#.#.] Y U L L L L L P Y E #.#.#.#.#.} T l                 ",
"                k L L L L L L X.#.#.#.#.#.#.#.#.#.#.L L L L L  .#.#.#.#.#.#.#.#.#.#.6               ",
"                k L L L L L L X.#.#.#.#.#.#.#.#.#.#.L L L L L  .#.#.#.#.#.#.#.#.#.#.7               ",
"                k L L L L L L X.#.#.#.#.! Z Z Z Z Z L L L L L  .#.#.#.#.~ Z Z Z Z Z <               ",
"                k L L L L L L X.#.#.#.#.Z j j j j j L L L L L  .#.#.#.#.A j j j j j ;               ",
"                k L L L L L L X.#.#.#.#.Z j j j j j L L L L L  .#.#.#.#.A j j j j j ;               ",
"          q F F K L L L L L L X.#.#.#.#.Z j j j j j L L L L L  .#.#.#.#.A j j j j j F F 8           ",
"          y L L L L L L L L L X.#.#.#.#.Z j j j j j L L L L L  .#.#.#.#.A j j j j j L L r           ",
"          y L L L L L L L L L ..+.@.#.#.Z j j j j j L L L L L | +.+.#.#.A j j j j j L L r           ",
"          y L L L L L L L L L L L W #.#.#.#.#.` L L L L L L L L L R #.#.#.#.#.{ L L L L r           ",
"          y L L L L L L L L L L L W #.#.#.#.#._ L L L L L L L L L T #.#.#.#.#.{ L L L L r           ",
"          y L L L L L L L L L L L W O.o.O.O.O.^ L L L L L L L L L Y O.O.O.O.O.' L L L L r           ",
"          y L L L L L L L L L L L L L L L L L L L L L L L L L L L L L L L L L L L L L L r           ",
"          y L L L L L L L L L L L L L L L L L L L L L L L L L L L L L L L L L L L L L L r           ",
"          y L L L L L L L L L L L L L L L L L L L L L L L L L L L L L L L L L L L L L L r           ",
"          y L L L L L L L L L L L L L L L L L L L L L L L L L L L L L L L L L L L L L L r           ",
"          y L L L L L L L L L L L L L L L L L L L L L L L L L L L L L L L L L L L L L L r           ",
"          y L L L L L L L L L L L L L L L L L L L L L L L L L L L L L L L L L L L L L L r           ",
"          y L L L L L L L L L L L L L L L L L L L L L L L L L L L L L L L L L L L L L L r           ",
"          t L L L L L L L L L L L L L L L L L L L L L L L L L L L L L L L L L L L L L L r           ",
"          r L L L L L L L L L L L L L L L L L L L L L L L L L L L L L L L L L L L L L L r           ",
"          r L L L L L L L L L L L L L L L L L L L L L L L L L L L L L L L L L L L L L L r           ",
"          r L L L L L L L L L L H g g b L L L L L L L L L L n g g J L L L L L L L L L L r           ",
"        o r L L L L L L L L L L S w 1 g L L L L L L L L L L x 2 e S L L L L L L L L L L r O         ",
"        o r L L L L L L L L L L S 0 : g L L L L L L L L L L x > 9 S L L L L L L L L L L r O         ",
"        o r p p g L L L L L a p p 0 : u p p C L L L L N p p u > 9 p p p L L L L L s p p r O         ",
"        X % % : a L L L L L i * % % $ % % 5 N L L L L N 4 % % $ % % % r L L L L L a - % % O         ",
"        X # # = a L L L L L i & # # # # # 4 N L L L L N 4 # # # # # # r L L L L L a * # # O         ",
"        X # # = r r r r r r r & # # # # # 4 r r r r r r 4 # # # # # # r r r r r r r * # # O         ",
"        X # # # # # # # # # # # # # # # # # # # # # # # # # # # # # # # # # # # # # # # # O         ",
"          . . . . . . . . . . . . . . . . . . . . . . . . . . . . . . . . . . . . . . . . .         ",
"                                                                                                    ",
"                                                                                                    ",
"                                                                                                    "
};
