/* XPM */
static char *_e7ba7b0d4394c28cd580b245af8cc04XIlkAWqYFwPdmDfF[] = {
/* columns rows colors chars-per-pixel */
"50 50 70 1 ",
"  c #000017",
". c #010118",
"X c #06031B",
"o c #07051C",
"O c #08061D",
"+ c #0C0821",
"@ c #110B24",
"# c #120C25",
"$ c #19102A",
"% c #201530",
"& c #241732",
"* c #261935",
"= c #281B37",
"- c #2A1C38",
"; c #2F1F3B",
": c #352340",
"> c #372543",
", c #3B2745",
"< c #3C2846",
"1 c #402A49",
"2 c #422C4B",
"3 c #472F4E",
"4 c #4A3050",
"5 c #4C3152",
"6 c #7C5178",
"7 c #1F1C99",
"8 c #575699",
"9 c #342FF5",
"0 c #3732FF",
"q c #5041FB",
"w c #8C5E85",
"e c #8E6488",
"r c #98658E",
"t c #A16A95",
"y c #AA719D",
"u c #B377A3",
"i c #B97AA8",
"p c #8F8F99",
"a c #C180AE",
"s c #C683B3",
"d c #D089BA",
"f c #D38BBC",
"g c #9B98FF",
"h c #A79FFD",
"j c #B4B2FF",
"k c #E094C6",
"l c #E698CB",
"z c #EA9BCE",
"x c #EC9CD0",
"c c #F09ED3",
"v c #F19FD4",
"b c #F3A0D6",
"n c #FEA8DE",
"m c #FEAFDE",
"M c #FEB0DF",
"N c #FEB3E0",
"B c #FEB5E2",
"V c #FEB9E2",
"C c #FEB9E4",
"Z c #FEBDE4",
"A c #CDCBFF",
"S c #DAD9FF",
"D c #FEC7E9",
"F c #FED9F0",
"G c #FEDEF2",
"H c #FFE7F4",
"J c #FFE9F7",
"K c #FFF5FB",
"L c #FFFBFD",
"P c white",
/* pixels */
"                                                  ",
"                                                  ",
"                                                  ",
"                                                  ",
"                                                  ",
"                   $%%%%%%%%%%$                   ",
"                   tnnnnnnnnnnr                   ",
"                   tnnnnnnnnnnr                   ",
"             X66666snnnnnnnnnna66666X             ",
"             OnnnnnnnnnnnnnnnnnnnnnnO             ",
"             OnnnnnnnnnnnnnnnnnnnnnnO             ",
"           fllnnnnnnnnnnnnnnnnnnnnnnlld           ",
"           xnnnnnnnnnnnnnnnnnnnnnnnnnnz           ",
"        XXXxnnnnnnnnnnnnnnnnnnnnnnnnnnzXXX        ",
"        wnnnnnnnnBPPPPPBnnnnnnnnnNPPPPPZnw        ",
"        wnnnnnnnnBPPPPPBnnnnnnnnnNPPPPPZnw        ",
"        wnnnnnnNmZPPPPPZMmnnnnnmMVPPPPPDNe        ",
"        wnnnnnnJPPPPPPPPPPnnnnnGPPPPPPPPPp        ",
"        wnnnnnnJPPPPPPPPPPnnnnnGPPPPPPPPPp        ",
"        wnnnnnnJPPPPAgggghnnnnnGPPPPSgggg8        ",
"        wnnnnnnJPPPPg0000qnnnnnGPPPPj00007        ",
"        wnnnnnnJPPPPg0000qnnnnnGPPPPj00007        ",
"     *zzbnnnnnnJPPPPg0000qnnnnnGPPPPj00009zz&     ",
"     -nnnnnnnnnJPPPPg0000qnnnnnGPPPPj00000nn=     ",
"     -nnnnnnnnnGKLPPg0000qnnnnnFKKPPj00000nn=     ",
"     -nnnnnnnnnnnNPPPPPVnnnnnnnnnNPPPPPZnnnn=     ",
"     -nnnnnnnnnnnNPPPPPVnnnnnnnnnNPPPPPZnnnn=     ",
"     -nnnnnnnnnnnBJHJJJNnnnnnnnnnMJJJJJCnnnn=     ",
"     -nnnnnnnnnnnnnnnnnnnnnnnnnnnnnnnnnnnnnn=     ",
"     -nnnnnnnnnnnnnnnnnnnnnnnnnnnnnnnnnnnnnn=     ",
"     -nnnnnnnnnnnnnnnnnnnnnnnnnnnnnnnnnnnnnn=     ",
"     -nnnnnnnnnnnnnnnnnnnnnnnnnnnnnnnnnnnnnn=     ",
"     -nnnnnnnnnnnnnnnnnnnnnnnnnnnnnnnnnnnnnn=     ",
"     -nnnnnnnnnnnnnnnnnnnnnnnnnnnnnnnnnnnnnn=     ",
"     -nnnnnnnnnnnnnnnnnnnnnnnnnnnnnnnnnnnnnn=     ",
"     -nnnnnnnnnnnnnnnnnnnnnnnnnnnnnnnnnnnnnn=     ",
"     -nnnnnnnnnnnnnnnnnnnnnnnnnnnnnnnnnnnnnn=     ",
"     -nnnnnnnnnnnnnnnnnnnnnnnnnnnnnnnnnnnnnn=     ",
"     -nnnnnvxxnnnnnnnncxxxxcnnnnnnnnxxvnnnnn=     ",
"     -nnnnn3X+nnnnnnnn<XXXX2nnnnnnnn+X5nnnnn=     ",
"     -nnnnn3 Onnnnnnnn,    1nnnnnnnnO 4nnnnn=     ",
"     -nnkyy: Oyyunnnnn,    1nnnnnuyyo >yyknn=     ",
"     -nni..   ..<nnnnn,    1nnnnn;..   ..inn=     ",
"     -nni       ,nnnnn,    1nnnnn;       inn=     ",
"     @44>       $44444$    $44444#       >44@     ",
"                                                  ",
"                                                  ",
"                                                  ",
"                                                  ",
"                                                  "
};
