/* XPM */
static char *f79fb926893a4ec0a4516e09cc039a08OpphKiAE3qGYsVqm[] = {
/* columns rows colors chars-per-pixel */
"50 50 73 1 ",
"  c black",
". c #FFF000",
"X c #FFF000",
"o c #FFF000",
"O c #FFF000",
"+ c #FFF000",
"@ c #FFF000",
"# c #FFF000",
"$ c #FFF000",
"% c #FFF000",
"& c #FFF000",
"* c #FFF000",
"= c #FFF000",
"- c #FFF000",
"; c #FFF000",
": c #FFF000",
"> c #FFF000",
", c #FFF000",
"< c #FFF000",
"1 c #FFF000",
"2 c #FFF000",
"3 c #FFF000",
"4 c #FFF000",
"5 c #FFF000",
"6 c #FFF000",
"7 c #FFF000",
"8 c #FFF000",
"9 c #FFF000",
"0 c #FFF000",
"q c #FFF000",
"w c #FFF000",
"e c #FFF000",
"r c #FFF000",
"t c #FFF000",
"y c #FFF000",
"u c #FFF000",
"i c #FFF000",
"p c #FFF000",
"a c #FFF000",
"s c #FFF000",
"d c #FFF000",
"f c #FFF000",
"g c #FFF000",
"h c #FFF000",
"j c #FFF000",
"k c #FFF000",
"l c #FFF000",
"z c #FFF000",
"x c #FFF000",
"c c #FFF000",
"v c #FFF000",
"b c #FFF000",
"n c #FFF000",
"m c #FFF000",
"M c #FFF000",
"N c #FFF000",
"B c None",
"V c #FFF000",
"C c #FFF000",
"Z c #FFF000",
"A c #FFF000",
"S c #FFF000",
"D c #FFF000",
"F c #FFF000",
"G c #FFF000",
"H c #FFF000",
"J c #FFF000",
"K c #FFF000",
"L c #FFF000",
"P c #FFF000",
"I c #FFF000",
"U c #FFF000",
"Y c white",
/* pixels */
"                                                  ",
"                                                  ",
"             ....................                 ",
"             ..XoooooooooooooooO.                 ",
"             ..+@#############$%.                 ",
"       ........&UUUUUUUUUUUUUUU*........          ",
"       ........=UUUUUUUUUUUUUUU-........          ",
"       .;:>,,,=<UUUUUUUUUUUUUUU#1,,,&+X.          ",
"       .23UUUUUUUUUUUUUUUUUUUUUUUUUUU@o.          ",
"    ....45UUUUUUUUUUUUUUUUUUUUUUUUUUU67....       ",
"    .890qwUUUUUUUUUUUUUUUUUUUUUUUUUUUertyu.       ",
"    .ipUUUUUUUUUUUUUUUUUUUUUUUUUUUUUUUUUa2.       ",
"    .sdUUUUUUUUUUUUUUUUUUUUUUUUUUUUUUUUUf2.       ",
"    .sdUUUUUUUUUUUUUUUUUUUUUUUUUUUUUUUUUf2.       ",
"    .sdUUUUUUUUUUUUUUUUUUUUUUUUUUUUUUUUUf2.       ",
"    .ipUUUUUUUUUUUUUUUUUUUUUUUUUUUUUUUUU5g....    ",
"    .hjklllzxUUUUUUUUUUUUUUUUUUUUUUUUUUUcvbnm.    ",
"    .mn888nMNUUUUUUUUUUUUUUUUUUUUUUUUUUUB5ljh.    ",
"    .......V#UUUUUUUUUUUUUUUUUUUUUUUUUUUUUUpi.    ",
"          .oCZAAAAAAAdUUUUUUUUUUUUUUUUUUUUUds.    ",
"          .SDFGGGGGGHJdUUUUUUUUUUUUUUUUUUUUds.    ",
"          ...........HAUUUUUUUUUUUUUUUUUUUUds.    ",
"                    .FxUUUUUUUUUUUUUUUUUUUUds.    ",
"                    .KLttttttt-PUUUUUUUUUUUds.    ",
"                    ...........IUUUUUUUUUUUds.    ",
"                    ...........IUUUUUUUUUUUds.    ",
"                    .KLttttttt-PUUUUUUUUUUUds.    ",
"                    .FxUUUUUUUUUUUUUUUUUUUUds.    ",
"          ...........HAUUUUUUUUUUUUUUUUUUUUds.    ",
"          .SDFGGGGGGHJdUUUUUUUUUUUUUUUUUUUUds.    ",
"          .oCZAAAAAAAdUUUUUUUUUUUUUUUUUUUUUds.    ",
"    .......V#UUUUUUUUUUUUUUUUUUUUUUUUUUUUUUpi.    ",
"    .mn888nMNUUUUUUUUUUUUUUUUUUUUUUUUUUUB5ljh.    ",
"    .hjklllzxUUUUUUUUUUUUUUUUUUUUUUUUUUUcvbnm.    ",
"    .ipUUUUUUUUUUUUUUUUUUUUUUUUUUUUUUUUU5g....    ",
"    .sdUUUUUUUUUUUUUUUUUUUUUUUUUUUUUUUUUf2.       ",
"    .sdUUUUUUUUUUUUUUUUUUUUUUUUUUUUUUUUUf2.       ",
"    .sdUUUUUUUUUUUUUUUUUUUUUUUUUUUUUUUUUf2.       ",
"    .ipUUUUUUUUUUUUUUUUUUUUUUUUUUUUUUUUUa2.       ",
"    .890qwUUUUUUUUUUUUUUUUUUUUUUUUUUUertyu.       ",
"    ....45UUUUUUUUUUUUUUUUUUUUUUUUUUU67....       ",
"       .23UUUUUUUUUUUUUUUUUUUUUUUUUUU@o.          ",
"       .;:>,,,=<UUUUUUUUUUUUUUU#1,,,&+X.          ",
"       ........=UUUUUUUUUUUUUUU-........          ",
"       ........&UUUUUUUUUUUUUUU*........          ",
"             ..+@#############$%.                 ",
"             ..XoooooooooooooooO.                 ",
"             ....................                 ",
"                                                  ",
"                                                  "
};
