/* XPM */
static char *f2c6abe6288e4f3ca3708823231d767frMLagZdZtywpLQYf[] = {
/* columns rows colors chars-per-pixel */
"50 50 25 1 ",
"  c None",
". c red",
"X c #FE0303",
"o c #FE0404",
"O c #FE0505",
"+ c #FC1414",
"@ c #F92626",
"# c #F92828",
"$ c #FA2929",
"% c #F44949",
"& c #F44A4A",
"* c #EE6E6E",
"= c #F16464",
"- c #432FBC",
"; c #3333CC",
": c #E89595",
"> c #E6A1A1",
", c #E3B5B5",
"< c #E2BBBB",
"1 c #8888D4",
"2 c #CFCFDC",
"3 c #D0D0DC",
"4 c #D6D6DC",
"5 c #DDDDDD",
"6 c #E0CCCC",
/* pixels */
"                                                  ",
"                                                  ",
"                                                  ",
"                   ............                   ",
"                   ............                   ",
"                   ............                   ",
"             ........................             ",
"             ........................             ",
"             ........................             ",
"          ...............................         ",
"         ................................         ",
"         ................................         ",
"         ......+******............%*****=         ",
"      .........#555555............:55555,...      ",
"      .........#555555............:55555,...      ",
"      ......+##%555555###......@##>55555<###      ",
"      ......*555555555555......6555555555555      ",
"      ......*555555555555......6555555555555      ",
"      ......*555555333333......6555554333332      ",
"      ......*555553;;;;;;......6555551;;;;;;      ",
"      ......*555553;;;;;;......6555551;;;;;;      ",
"      ......*555553;;;;;;......6555551;;;;;;      ",
"   .........*555553;;;;;;......6555551;;;;;-...   ",
"   .........*555553;;;;;;......6555551;;;;;-...   ",
"   .........*555553;;;;;;......6555551;;;;;-...   ",
"   ............#555555............:55555,......   ",
"   ............#555555............:55555,......   ",
"   ............#555555............:55555,......   ",
"   .............OOOOOO.............OOOOOO......   ",
"   ............................................   ",
"   ............................................   ",
"   ............................................   ",
"   ............................................   ",
"   ............................................   ",
"   ............................................   ",
"   ............................................   ",
"   ............................................   ",
"   ............................................   ",
"   ............................................   ",
"   ............................................   ",
"   ............................................   ",
"   ......    .........      .........    ......   ",
"   ......    .........      .........    ......   ",
"   ......    .........      .........    ......   ",
"   ...          ......      ......          ...   ",
"   ...          ......      ......          ...   ",
"   ...          ......      ......          ...   ",
"                                                  ",
"                                                  ",
"                                                  "
};
