/* XPM */
static char *_2e3d9526b3f412fded03fb1775b4becQbE1mb1G3MUEsyPF[] = {
/* columns rows colors chars-per-pixel */
"50 50 77 1 ",
"  c #000017",
". c #030017",
"X c #0E0017",
"o c #100015",
"O c #140015",
"+ c #190014",
"@ c #1D0014",
"# c #270013",
"$ c #230014",
"% c #240014",
"& c #280013",
"* c #310013",
"= c #56000F",
"- c #58000F",
"; c #5D000E",
": c #400011",
"> c #460011",
", c #66000D",
"< c #68000D",
"1 c #75000D",
"2 c #8C000B",
"3 c #990009",
"4 c #A70008",
"5 c #AB0008",
"6 c #AD0008",
"7 c #B70007",
"8 c #B90006",
"9 c #A70613",
"0 c #B60F15",
"q c #C30005",
"w c #C70005",
"e c #CA0005",
"r c #CE0004",
"t c #D50004",
"y c #DD0003",
"u c #E10003",
"i c #E50003",
"p c #EA0002",
"a c #ED0002",
"s c #F10001",
"d c #FB0001",
"f c #FD0000",
"g c #FF0F0F",
"h c #FF0B16",
"j c #FF1C1C",
"k c #FF2B2B",
"l c #FF2D2D",
"z c #FF3737",
"x c #FF3838",
"c c #FF3C3C",
"v c #CC4549",
"b c #FF4A4A",
"n c #FF5050",
"m c #FF5656",
"M c #FF6666",
"N c #2824BE",
"B c #706DBE",
"V c #332EED",
"C c #3732FF",
"Z c #5037F5",
"A c #B6B6BE",
"S c #FF9A9A",
"D c #FFA0A0",
"F c #FFB2B2",
"G c #FFBEBE",
"H c #9997FD",
"J c #9B98FF",
"K c #A79BFA",
"L c #B4B2FF",
"P c #FFC3C3",
"I c #FFC5C5",
"U c #CDCBFF",
"Y c #DAD9FF",
"T c #FFF5F5",
"R c #F7F7F8",
"E c #FFFBFB",
"W c white",
/* pixels */
"                                                  ",
"                                                  ",
"                                                  ",
"                                                  ",
"                                                  ",
"                   &,,,,,,,,,,+                   ",
"                   =ffffffffff=                   ",
"                   =ffffffffff=                   ",
"             *27778rffffffffffr77772*             ",
"             >qffffffffffffffffffffq>             ",
"           O+-effffffffffffffffffffe-+o           ",
"          o3etsffffffffffffffffffffstw6+          ",
"          +wffffffffffffffffffffffffffu@          ",
"        *>-tffffffffffffffffffffffffffp->*        ",
"        2qesfffffxWWWWWzfffffffffjWWWWRvq2        ",
"        7ffffffffzWWWWWzfffffffffjWWWWWnf7        ",
"        8ffffffjjbWWWWWmjjfffffgjcWWWWWMj0        ",
"        8ffffffGWWWWWWWWWWfffffDWWWWWWWWWA        ",
"        8ffffffGWWWWWWWWWWfffffDWWWWWWWWWA        ",
"        8ffffffGWWWWUJJJJKfffffDWWWWYJJJHB        ",
"        8ffffffGWWWWJCCCCZfffffDWWWWLCCCCN        ",
"        8ffffffGWWWWJCCCCZfffffDWWWWLCCCCN        ",
"     >44yffffffGWWWWJCCCCZfffffDWWWWLCCCCV94>     ",
"     ,fffffffffGWWWWJCCCCZfffffDWWWWLCCCCChf<     ",
"     ,fffffffffFTEWWJCCCCZfffffSTTWWLCCCCChf<     ",
"     ,fffffffffffzWWWWWcfffffffffjWWWWWnffff<     ",
"     ,fffffffffffzWWWWWxfffffffffjWWWWWnffff<     ",
"     ,fffffffffffkIGGPPlfffffffffjIGGPIxffff<     ",
"     ,ffffffffffffffffffffffffffffffffffffff<     ",
"     ,ffffffffffffffffffffffffffffffffffffff<     ",
"     ,ffffffffffffffffffffffffffffffffffffff<     ",
"     ,ffffffffffffffffffffffffffffffffffffff<     ",
"     ,ffffffffffffffffffffffffffffffffffffff<     ",
"     ,ffffffffffffffffffffffffffffffffffffff<     ",
"     ,ffffffffffffffffffffffffffffffffffffff<     ",
"     ,ffffffffffffffffffffffffffffffffffffff<     ",
"     ,ffffffffffffffffffffffffffffffffffffff<     ",
"     ,ffffffffffffffffffffffffffffffffffffff<     ",
"     ,fffffpupdfffffffauuuuafffffffdpuidffff<     ",
"     ,ffffa-@;rfffffff1@@@@1fffffffr;@:pffff<     ",
"     ,ffffp> >qfffffff<    ,fffffffq> %iffff<     ",
"     ,ffr84* *27qsffff<    ,fffffe72* +58rff<     ",
"     ,ff=       #pffff<    ,ffffa>       =ff<     ",
"     ,ff=       #pffff,    ,ffffa>       =ff,     ",
"     $,<&       X-<<<<%    $,<<<;@       +<<%     ",
"                                                  ",
"                                                  ",
"                                                  ",
"                                                  ",
"                                                  "
};
