/* XPM */
static char *result[] = {
/* columns rows colors chars-per-pixel */
"50 50 124 2 ",
"   c #000017",
".  c #010017",
"X  c #010117",
"o  c #020017",
"O  c #030017",
"+  c #0F0015",
"@  c #0F0317",
"#  c #0A0417",
"$  c #010118",
"%  c #020218",
"&  c #030318",
"*  c #040418",
"=  c #110015",
"-  c #120015",
";  c #170014",
":  c #170015",
">  c #1A0014",
",  c #1B0316",
"<  c #210316",
"1  c #240014",
"2  c #270315",
"3  c #2C0014",
"4  c #2D0014",
"5  c #320214",
"6  c #3E0213",
"7  c #080B2A",
"8  c #13142E",
"9  c #1D1D31",
"0  c #1D1D32",
"q  c #5E000E",
"w  c #400012",
"e  c #410013",
"r  c #440212",
"t  c #490111",
"y  c #490112",
"u  c #4E0010",
"i  c #4F0010",
"p  c #4F0111",
"a  c #510010",
"s  c #530110",
"d  c #550110",
"f  c #550111",
"g  c #5A0010",
"h  c #60000F",
"j  c #6A000E",
"k  c #74000D",
"l  c #74000E",
"z  c #84000C",
"x  c #87000C",
"c  c #88000B",
"v  c #91000A",
"b  c #91000B",
"n  c #9C0009",
"m  c #9E0009",
"M  c #9F0009",
"N  c #A60009",
"B  c #AF0008",
"V  c #B30007",
"C  c #BD0006",
"Z  c #B00008",
"A  c #B00F15",
"S  c #9F1127",
"D  c #C10006",
"F  c #C10007",
"G  c #C30006",
"H  c #C50005",
"J  c #C50006",
"K  c #C80004",
"L  c #C80005",
"P  c #CD0005",
"I  c #D00004",
"U  c #D70004",
"Y  c #DA0003",
"T  c #DE0003",
"R  c #E10003",
"E  c #E50103",
"W  c #EB0002",
"Q  c #EF0001",
"!  c #F50001",
"~  c #FC0000",
"^  c #FD0000",
"/  c #FD0001",
"(  c #FE0000",
")  c red",
"_  c #FF0001",
"`  c #FF0101",
"'  c #FF0202",
"]  c #FF0F0F",
"[  c #FF1C1C",
"{  c #FF1D1D",
"}  c #FD1E1E",
"|  c #FF1E1E",
" . c #FF1529",
".. c #FF3C3C",
"X. c #FF4646",
"o. c #FF4E4E",
"O. c #FF5050",
"+. c #FF5151",
"@. c #FF5656",
"#. c #FF6060",
"$. c #FF6161",
"%. c #FF6969",
"&. c #FF6B6B",
"*. c #FF6C6C",
"=. c #FF6D6D",
"-. c #3732FF",
";. c #D88184",
":. c #FF8080",
">. c #FF9191",
",. c #FF9F9F",
"<. c #9B98FF",
"1. c #B4B2FF",
"2. c #FFC8C8",
"3. c #FFCFCF",
"4. c #FFDEDE",
"5. c #CDCCFF",
"6. c #DAD9FF",
"7. c #FFE7E7",
"8. c #FFEFEF",
"9. c #FFF0F0",
"0. c #FFF1F1",
"q. c #FEFEFE",
"w. c #FFFEFE",
"e. c white",
/* pixels */
"                                                                                                    ",
"                                                                                                    ",
"                                                                                                    ",
"                                                                                                    ",
"                                                                                                    ",
"                                    . 1 q q q q q q q q q q ; o                                     ",
"                                    O u ~ ~ ~ ~ ~ ~ ~ ~ ~ ~ u o                                     ",
"                                    O i ) ) ) ) ) ) ) ) ) ) i o                                     ",
"                          3 z Z Z Z V K ) ) ) ) ) ) ) ) ) ) L Z Z Z Z z 3                           ",
"                          w C / / / / ^ ) ) ) ) ) ) ) ) ) ) ( / / / / C w                           ",
"                      - : a H ) ) ) ) ) ) ) ) ) ) ) ) ) ) ) ) ) ) ) ) H a : =                       ",
"                    + v F I Q ) ) ) ) ) ) ) ) ) ) ) ) ) ) ) ) ) ) ) ) Q I F N :                     ",
"                    ; D ) ) ) ) ) ) ) ) ) ) ) ) ) ) ) ) ) ) ) ) ) ) ) ) ) ) T >                     ",
"                3 w a I ) ) ) ) ) ' ` ` ` ` ` ) ) ) ) ) ) ) ) ) ) ) ) ) ' ` E s w 4                 ",
"                z C J Q ) ) ) ) ) +.e.e.e.e.e.#.) ) ) ) ) ) ) ) ) | e.e.e.e.q.;.C z                 ",
"                Z ^ ) ) ) ) ) ) ) O.e.e.e.e.e.%.) ) ) ) ) ) ) ) ) | e.e.e.e.e.>.^ Z                 ",
"                Z ^ ) ) ) ) ) | [ $.e.e.e.e.e.:.{ { ) ) ) ) ) ] { ..e.e.e.e.e.,.} A                 ",
"                Z ^ ) ) ) ) ) 7.e.e.e.e.e.e.e.e.e.e.) ) ) ) ) 3.e.e.e.e.e.e.e.e.e.e.9               ",
"                Z ^ ) ) ) ) ) 7.e.e.e.e.e.e.e.e.e.e.) ) ) ) ) 3.e.e.e.e.e.e.e.e.e.e.0               ",
"                Z ^ ) ) ) ) ) 7.e.e.e.e.5.<.<.<.<.<.) ) ) ) ) 3.e.e.e.e.6.<.<.<.<.<.8               ",
"                Z ^ ) ) ) ) ) 7.e.e.e.e.<.-.-.-.-.-._ ) ) ) ) 3.e.e.e.e.1.-.-.-.-.-.7               ",
"                Z ^ ) ) ) ) ) 7.e.e.e.e.<.-.-.-.-.-._ ) ) ) ) 3.e.e.e.e.1.-.-.-.-.-.7               ",
"          w m M Y ^ ) ) ) ) ) 7.e.e.e.e.<.-.-.-.-.-._ ) ) ) ) 3.e.e.e.e.1.-.-.-.-.-.S M e           ",
"          q ~ ) ) ) ) ) ) ) ) 7.e.e.e.e.<.-.-.-.-.-._ ) ) ) ) 3.e.e.e.e.1.-.-.-.-.-. .) h           ",
"          q ~ ) ) ) ) ) ) ) ) 4.w.w.e.e.<.-.-.-.-.-._ ) ) ) ) 2.w.w.e.e.1.-.-.-.-.-. .) h           ",
"          q ~ ) ) ) ) ) ) ) ) ) ) o.e.e.e.e.e.=.) ) ) ) ) ) ) ) ) | e.e.e.e.e.>.) ) ) ) h           ",
"          q ~ ) ) ) ) ) ) ) ) ) ) o.e.e.e.e.e.*.) ) ) ) ) ) ) ) ) | e.e.e.e.e.>.) ) ) ) h           ",
"          q ~ ) ) ) ) ) ) ) ) ) ) X.0.8.8.8.9.@.) ) ) ) ) ) ) ) ) { 9.8.8.8.0.&.) ) ) ) h           ",
"          q ~ ) ) ) ) ) ) ) ) ) ) ) ) ) ) ) ) ) ) ) ) ) ) ) ) ) ) ) ) ) ) ) ) ) ) ) ) ) h           ",
"          q ~ ) ) ) ) ) ) ) ) ) ) ) ) ) ) ) ) ) ) ) ) ) ) ) ) ) ) ) ) ) ) ) ) ) ) ) ) ) h           ",
"          q ~ ) ) ) ) ) ) ) ) ) ) ) ) ) ) ) ) ) ) ) ) ) ) ) ) ) ) ) ) ) ) ) ) ) ) ) ) ) h           ",
"          q ~ ) ) ) ) ) ) ) ) ) ) ) ) ) ) ) ) ) ) ) ) ) ) ) ) ) ) ) ) ) ) ) ) ) ) ) ) ) h           ",
"          q ~ ) ) ) ) ) ) ) ) ) ) ) ) ) ) ) ) ) ) ) ) ) ) ) ) ) ) ) ) ) ) ) ) ) ) ) ) ) h           ",
"          q ) ) ) ) ) ) ) ) ) ) ) ) ) ) ) ) ) ) ) ) ) ) ) ) ) ) ) ) ) ) ) ) ) ) ) ) ) ) h           ",
"          q ) ) ) ) ) ) ) ) ) ) ) ) ) ) ) ) ) ) ) ) ) ) ) ) ) ) ) ) ) ) ) ) ) ) ) ) ) ) h           ",
"          h ) ) ) ) ) ) ) ) ) ) ) ) ) ) ) ) ) ) ) ) ) ) ) ) ) ) ) ) ) ) ) ) ) ) ) ) ) ) h           ",
"          h ) ) ) ) ) ) ) ) ) ) ) ) ) ) ) ) ) ) ) ) ) ) ) ) ) ) ) ) ) ) ) ) ) ) ) ) ) ) h           ",
"          h ) ) ) ) ) ) ) ) ) ) ) ) ) ) ) ) ) ) ) ) ) ) ) ) ) ) ) ) ) ) ) ) ) ) ) ) ) ) h           ",
"          h ) ) ) ) ) ) ) ) ) ) ! n n G ) ) ) ) ) ) ) ) ) ) P n n ! ) ) ) ) ) ) ) ) ) ) h           ",
"        % h ) ) ) ) ) ) ) ) ) ) W g 6 n ) ) ) ) ) ) ) ) ) ) B r g W ) ) ) ) ) ) ) ) ) ) h &         ",
"        % h ) ) ) ) ) ) ) ) ) ) W d 2 n ) ) ) ) ) ) ) ) ) ) B 5 f W ) ) ) ) ) ) ) ) ) ) h &         ",
"        % h k k n ) ) ) ) ) c k k d 2 j k k R ) ) ) ) U k k j 5 f k k k ) ) ) ) ) b k k h &         ",
"        $ @ @ 2 x ) ) ) ) ) l , @ @ # @ @ p U ) ) ) ) U y @ @ # @ @ @ h ) ) ) ) ) c < @ @ &         ",
"        $ * * , x ) ) ) ) ) l @ * * * * * t U ) ) ) ) U y * * * * * * h ) ) ) ) ) c , * * &         ",
"        $ * * , h h h h h h h @ * * * * * t h h h h h h y * * * * * * h h h h h h h , * * &         ",
"        $ * * * * * * * * * * * * * * * * * * * * * * * * * * * * * * * * * * * * * * * * &         ",
"          X X X X X X X X X X X X X X X X X X X X X X X X X X X X X X X X X X X X X X X X X         ",
"                                                                                                    ",
"                                                                                                    ",
"                                                                                                    "
};
