/* XPM */
static char *_cb0519f27b74089accacfb49e0e1516N0uD0fete1wWRNHZ[] = {
/* columns rows colors chars-per-pixel */
"50 50 54 1 ",
"  c None",
". c #010116",
"X c #000017",
"o c #010117",
"O c #000018",
"+ c #010118",
"@ c #000019",
"# c #010119",
"$ c #00001A",
"% c #030329",
"& c #03032A",
"* c #03032B",
"= c #04042A",
"- c #04042B",
"; c #03032C",
": c #02022D",
"> c #03032D",
", c #03032E",
"< c #04042C",
"1 c #04042D",
"2 c #04042E",
"3 c #08083F",
"4 c #080842",
"5 c #090944",
"6 c #0D0D67",
"7 c #0D0D68",
"8 c #0D0D69",
"9 c #0E0E68",
"0 c #0E0E69",
"q c #0F0F69",
"w c #0D0D6A",
"e c #0D0D6B",
"r c #0E0E6A",
"t c #0F0F6A",
"y c #0E0E6B",
"u c #0E0E6C",
"i c #0F0F6C",
"p c #0E0E6D",
"a c #0F0F6D",
"s c #0E0E6E",
"d c #0F0F6E",
"f c #0F0F6F",
"g c #10106D",
"h c #10106E",
"j c #10106F",
"k c #0F0F70",
"l c #0F0F71",
"z c #0F0F72",
"x c #101070",
"c c #111170",
"v c #101071",
"b c #111171",
"n c #101072",
"m c #111172",
/* pixels */
" 8pkvvvvvvvvvvvvvvvvvvkvvvvvvvvvvvvvvvvkvvvvkkgp8 ",
"8ppggppgppppppppppppppgpgppgggpgpppgppppppgpppppp8",
"pp3<&&&&&&&&&&&&&&&&&&&&&&&&&&-&&&&&&&&&&&-&&-<48p",
"pp;@@@@@@@o@o@o@@o@@@@@@@@@@@@@@@@@@@oo@@oo@@@@;6p",
"kp&@ooooooooooo@oooooooooo@oo@oo@ooo@ooooo@ooo@;8v",
"vp&@o@ooooo@oooo@oooooooooo@o@oooooo@oooo@oo@@@<8v",
"kp&@ooooooooooooo@@ooooooo@oooooo@oo@ooooooo@@@;8k",
"kp&@@oo@oo@ooooooooooooooooooo@oo@oooooooooooo@;8v",
"kp&@oooo@o@o@oooooo@@ooooooo@oooooo@ooo@@ooooo@;8v",
"vg&@oo@oooooooooooo@ooo@@@@ooo@oooooo@ooooooooo;8v",
"kp&@ooooooo@ooooo@o@@o@oooooooo@ooooo@oooooooo@;8k",
"vp&@ooo@oooooooo@ooooooooo@oooo@@oo@@oooooo@oo@;8v",
"vp&@o@ooooooooo@@oo@o@oooo@o@oooooooooooo@oo@o@<8v",
"kp&@ooo@o@oooooooooooooooooooooooo@ooooooooooo@;8v",
"vp&@ooooooooooo@ooooo@o@oo@o@ooooooo@@o@oooooo@<8v",
"vp&@@o@ooooo@o@oooooooo@oo@@o@@ooooooooooooooo@;8k",
"kp&@ooooooooooooooooooo@ooo@ooooo@oo@ooooooooo@;8k",
"kp&@o@oooooo@ooooooo@oooooooooooooooooooo@o@oo@;8v",
"kp&@@ooooooo@ooooooooo@ooooo@oooooooooo@oooooo@;8v",
"kp&@ooooo@o@@oooooooooooooooo@@o@oooooooo@ooo@@;8v",
"vp&@oooooooooooo@ooooooooooooooooooooo@oooooo@@;8v",
"vp&@@ooooo@oooooooo@o@ooo@o@oo@ooooooooooooooo@<8v",
"kp&@o@ooooooooo@oooooooooooo@oooooo@oooooooooo@;8v",
"vp&@oooooooooooo@ooooooo@oo@ooooo@oooooooo@oo@@;8v",
"kp&oooooooooooooooooo@oo@oooooooo@oooooo@oo@@o@<8v",
"vp&@@oooooooo@ooooooooo@ooo@ooooo@ooo@oooo@ooo@;gv",
"kp&@@oooooooo@oo@ooooooooooooooooooooooooooooo@<gv",
"kp&@ooooooo@ooooooooo@@oooooo@ooooooooo@oooooo@;8v",
"kp&o@ooooo@oo@oo@o@@oo@ooo@o@oo@ooooooooooooo@@;8k",
"vp&@oooooooooooo@oooooo@oooo@oooooo@ooo@oo@ooo@;8v",
"kp&@oooo@oooooo@oo@oooo@@ooooooo@ooooooooo@@oo@;8v",
"vp&@oooooooooo@ooooooooo@oooooooooooooooooooooo;8v",
"kp&@@o@oooo@ooo@ooooooooooooooo@oooooooooooooo@;8v",
"kp&@ooooooooooooo@o@ooooooooooo@oooooooo@ooo@o@;8k",
"vp&@oooooooo@ooo@oooo@o@ooo@oooooooooooooooooo@;8v",
"kp-@@oo@ooooooooo@ooooooo@ooooo@ooooooo@oooooo@;8v",
"kp&@@oo@@@oo@o@ooo@@oooooooooo@oooo@oooooooooo@;8k",
"kp&@oooooooooooo@oooooooo@@oooooooo@o@ooooooo@@;8v",
"kp&@oooooo@oo@oooooooooo@oooooooooo@o@oooooooo@;8k",
"kp&@o@oooooooooo@oo@oo@oooooooooooooooooooooo@@<8v",
"kp&@ooooooooo@ooooooooooo@ooooo@ooooo@oooooooo@;8v",
"vp&@oooo@o@@ooooooooooooooooooooooooooooooooo@@<8v",
"vp&@ooo@oooooooooooooooooooooo@oooooo@ooo@@o@o@;8v",
"kp&@oooooooo@oo@o@oooooooo@@oooooooooo@oooo@oo@;8v",
"kp&@ooooooo@ooooooooooooooo@oooooooo@ooooooo@o@<8v",
"kp&@oooo@oooooooo@ooooo@o@oooooooo@o@o@ooooooo@;8k",
"vp;@@@@@@oo@@o@@@@@@@@@@@@@@@@@@@o@@@@@@@@@o@@@<6p",
"pp5;<;&<;;;;;;;<;<<;;;;;;;;;;<<;;<;;;;;;;;;;;;<48p",
"8g88888888888888888888888g8888888888888888888888g8",
" 8pkvvvvvvvkvkvvvvvvvvvvvvkkvvvvvkvvvvkvvvvvvvgp8 "
};
