/* XPM */
static char *_06e36fdb41247e0d79c4d69f13de5b33dmFSBtjLFdBENre[] = {
/* columns rows colors chars-per-pixel */
"52 52 62 1 ",
"  c None",
". c #070707",
"X c gray3",
"o c #090909",
"O c #061522",
"+ c #071522",
"@ c #071523",
"# c #071622",
"$ c #071623",
"% c #061626",
"& c #061726",
"* c #071726",
"= c #071727",
"- c #081623",
"; c #081727",
": c #071827",
"> c #081827",
", c #062039",
"< c #06213C",
"1 c #06223C",
"2 c #062440",
"3 c #024D95",
"4 c #034D95",
"5 c #034E95",
"6 c #024D96",
"7 c #034D96",
"8 c #034E96",
"9 c #044E96",
"0 c #03519A",
"q c #03519B",
"w c #03519C",
"e c #01529F",
"r c #02529E",
"t c #02539E",
"y c #02529F",
"u c #02539F",
"i c #03539F",
"p c #0154A2",
"a c #0254A2",
"s c #015AAE",
"d c #015AAF",
"f c #015AB0",
"g c #015BB0",
"h c #005BB1",
"j c #015BB1",
"k c #025BB1",
"l c #005BB2",
"z c #015BB2",
"x c #005CB1",
"c c #015CB1",
"v c #005CB2",
"b c #015CB2",
"n c #005DB2",
"m c #015DB2",
"M c #015CB3",
"N c #015DB3",
"B c #025CB2",
"V c #025DB2",
"C c #025CB3",
"Z c #025DB3",
"A c #025EB2",
"S c #025CB4",
/* pixels */
"                                                    ",
"  VVVVVVVVVVVVVVkVVVVVVVVVVVVVVVVVVVVVVVVVVVVVVVVV  ",
" kVVVVVVVkVVVVVVVVVVVVVVkVVVVVVVVVVVVVVVVVVVVVVVVkV ",
" VVVVVVVVVVVVVVVVVVVVVVkVVVVVVVVVVVVVVVVVkVVVVVVVVV ",
" kVVkarrrrrrrrrrrrrrrrrrrrrrrrrrrrrrrrrrrrrrrrakVVV ",
" VVVa,@@@@@@@@@@-@@@@@@@@@@@@@-@@@@@@@@@@@@@@@<0VVV ",
" VVVr@oooooooooooooooooooo.ooooooooooooooooooo*7VVV ",
" VVVr@oooooooooooooooooooooooo.ooooooooooooooo:7kVV ",
" VVVr@oooooooooooooooooooooooooooooooooooooooo*7VVV ",
" VVVr@oo.ooooooooo.ooooooooooooooooooooooooooo*7VVV ",
" VVVr@ooooooooo.oooooooooooooooooooooooooo.ooo*7VVV ",
" VVVr@o.oooooooooooooooooooooo.ooooooooooooooo*7VVV ",
" VkVr@oooooooooooooooooooooooooooooooooooooooo*7VVV ",
" VVVr@ooooooooooooooooooooooooooooooooooo.oooo*7VVV ",
" VVVr@ooooooooooooooooooooooooooooooooooooo.oo*7VVV ",
" VVVr@ooooooooooooooooooooooooooooooooooooo.oo*7VVV ",
" VVVr-oooooooooooooooooooo.oooooooooooooo..ooo*7VVV ",
" kVVr@ooooooooooo.oooooooooooo.ooooooooooooooo*7VVV ",
" VVVr@oo.oooooooooooooooooooooo.oooooooooooooo*7VVV ",
" kVVr@.oooooooo.oooooooooo.ooooooo.ooooooooooo*7VVV ",
" VVVr@.ooooooooooooooo.ooooooooooo.ooooooooooo*7VVV ",
" VVVr@ooooooooo..oooooooooooo.ooooooooooo.oo.o*7VVV ",
" VVVr@oooooooooo.oooooooooooo.oooooooooooooooo*7VVV ",
" VVVr@ooooo.oooooooooooooooooooooo.ooooooooooo*9VVV ",
" VVVr@ooooo..ooooooo.ooooooooooooooooooooooooo:7kVV ",
" kVVr@ooooooooooooooooooooooooooooo.oo.ooooooo*7VkV ",
" VVVr@ooooooooooooooooooooooooooooo.ooooo.oooo*7VVV ",
" VVVr@oooooooooooooooooooooooooooooooooooooooo*7VVV ",
" VVVr@ooooooooooooooooooooooo.oooooooo.ooooooo*7VVV ",
" kVVr@ooooooooooooooooooooooooooooooooo.oooooo*7VVV ",
" VVVr@oooooooooooooooooooooooooooooooooooooooo*7VVV ",
" VVVr@oooooooooooooooooooooooooooooooooooooooo*7VVV ",
" VVVr@oooooooooooooooooooooooooooooooooooooooo*7VVV ",
" VVVr@ooooooooooooooooooooooooooooo.ooooooo.oo*7VVV ",
" VVVr@oooooo.ooooooooooooooooooooooooooooooooo*7VVV ",
" VVVr@ooooooooooooooooooooo.ooooooooooo.oooooo*7kVV ",
" VVVr@oooooooooooooooooo.ooooooooooooooooooo.o*7VVV ",
" VVVr@oooooooooooooooooooooooooo.ooooooooooooo*7VVV ",
" VVVr@ooooooo.oooo..ooooooooooooooooo.o.oooooo:7VVV ",
" VVVr@.oooooooooooooooooooooooooooo.oooooooooo*7VVV ",
" VVVr@ooooooo.oooooooooooooooooooooooooooooooo>7VVV ",
" VVVr@oooooooooooooooooooooooooooooooooooooooo*7kVV ",
" VVVr@oooooooooooooo.oooooooooooooooooooo..oo.*7VVV ",
" VVVr@oooooooooooo.oooooo.oooooooooooooooooooo*7VVV ",
" VVVr@ooooooooooo.oooooooooooooooooooooooooooo*7VVV ",
" kVVr@ooooooooooooo.oooooooooooooo.o.ooooooooo*7VVV ",
" VVVa<***>********;****;;*;****>*>*>*;*>******2rVVV ",
" VVkd077777777777777777777777777777777777777770dVVV ",
" VVVVVVVVVVVVVVVVVVVVkVVVVVVVkVVVVVVVVVVVkVVVVVVVkk ",
" SVkVVVVVVVVVVVVVVVVVVVVVVVVVVVVVVVVVVVVVVVVVVVVVVV ",
"  VkVVVVVVkVVVVVVVVVVVVVVVkVVVVVVVVVVVkVVVVVVVVVVV  ",
"                                                    "
};
