/* XPM */
static char *_57b88e6481e4651d00fede13321cae8ct6ctS48xZs1TIxS[] = {
/* columns rows colors chars-per-pixel */
"50 50 62 1 ",
"  c None",
". c #936C2B",
"X c #936B2C",
"o c #946C2C",
"O c #976D2E",
"+ c #A57731",
"@ c #CC943C",
"# c #CD973C",
"$ c #CC943E",
"% c #DB9F41",
"& c #DCA140",
"* c #E3A543",
"= c #E8A945",
"- c #EAA945",
"; c #EAAA44",
": c #EBAA45",
"> c #EAAA46",
", c #ECAB46",
"< c #EBAC45",
"1 c #EDAD45",
"2 c #ECAC46",
"3 c #EDAD46",
"4 c #F2B148",
"5 c #F6B349",
"6 c #F7B449",
"7 c #F7B44A",
"8 c #FAB649",
"9 c #FBB749",
"0 c #FBB74A",
"q c #FCB749",
"w c #FCB74A",
"e c #FCBB54",
"r c #FCBB55",
"t c #FCBD59",
"y c #FCBE5B",
"u c #FCBE5D",
"i c #C59C66",
"p c #C89F64",
"a c #FCC164",
"s c #FCC46B",
"d c #3F60AC",
"f c #3E60AD",
"g c #3F60AD",
"h c #8FA2CF",
"j c #97A9D2",
"k c #FDE6C0",
"l c #FEE6C0",
"z c #FEE8C6",
"x c #FEEFD8",
"c c #FEF0D9",
"v c #FEF1DB",
"b c #C3CDE5",
"n c #FEF4E4",
"m c #FEF5E7",
"M c #FEF5E8",
"N c #FEF6E8",
"B c #FEFDFB",
"V c #FFFDFC",
"C c #FFFEFC",
"Z c #FDFDFE",
"A c #FEFEFE",
"S c white",
/* pixels */
"                                                  ",
"                                                  ",
"                                                  ",
"                                                  ",
"                                                  ",
"                                                  ",
"                    wwwwwwwwww%                   ",
"                    wwwwwwwwww%                   ",
"                   *wwwwwwwwww<                   ",
"              wwwwwwwwwwwwwwwwwwwwww              ",
"              wwwwwwwwwwwwwwwwwwwwww              ",
"           :77wwwwwwwwwwwwwwwwwwwwww774           ",
"           1wwwwwwwwwwwwwwwwwwwwwwwwww5           ",
"           1wwwwwwwwwwwwwwwwwwwwwwwwww5           ",
"         wwcSSSSSwwwwwwwwwwrSSSSSuwwwwwww@        ",
"         wwcSSSSSwwwwwwwwwwrSSSSSuwwwwwww@        ",
"         ttcSSSSSttrwwwwwttaSSSSSsttwwwww@        ",
"         SSSSSSSSSSlwwwwwSSSSSSSSSSSwwwww@        ",
"         SSSSSSSSSSlwwwwwSSSSSSSSSSSwwwww@        ",
"         jjjjjSSSSSlwwwwwjjjjjbSSSSSwwwww@        ",
"         gggggSSSSSlwwwwwggggghSSSSSwwwww@        ",
"         gggggSSSSSlwwwwwggggghSSSSSwwwww@        ",
"      99igggggSSSSSlwwwwwggggghSSSSSwwwww999      ",
"      99pgggggSSSSSlwwwwwggggghSSSSSwwwwwwww      ",
"      99pgggggSSSSSkwwwwwggggghSSSSSwwwwwwww      ",
"      99999xSSSSBwwwwwwwwwwrSSSSSuwwwwwwwwww      ",
"      99999xSSSSBwwwwwwwwwwrSSSSSuwwwwwwwwww      ",
"      99999zmmmmnwwwwwwwwwwrmmNNNtwwwwwwwwww      ",
"      99999wwwwwwwwwwwwwwwwwwwwwwwwwwwwwwwww      ",
"      99999wwwwwwwwwwwwwwwwwwwwwwwwwwwwwwwww      ",
"      99999wwwwwwwwwwwwwwwwwwwwwwwwwwwwwwwww      ",
"      99999wwwwwwwwwwwwwwwwwwwwwwwwwwwwwwwww      ",
"      99999wwwwwwwwwwwwwwwwwwwwwwwwwwwwwwwww      ",
"      99999wwwwwwwwwwwwwwwwwwwwwwwwwwwwwwwww      ",
"      99999wwwwwwwwwwwwwwwwwwwwwwwwwwwwwwwww      ",
"      99999wwwwwwwwwwwwwwwwwwwwwwwwwwwwwwwww      ",
"      99999wwwwwwwwwwwwwwwwwwwwwwwwwwwwwwwww      ",
"      99999wwwwwwwwwwwwwwwwwwwwwwwwwwwwwwwww      ",
"      999991::wwwwwwww,:::::wwwwwwww:::wwwww      ",
"      wwwww   99999999      99wwwwww   wwwww      ",
"      wwwww   99999999      99wwwwww   wwwww      ",
"      ww1..   o.o99999      99www+.X   ..&ww      ",
"      ww:        99999      99www        %ww      ",
"      ww:        99999      99www        %ww      ",
"                                                  ",
"                                                  ",
"                                                  ",
"                                                  ",
"                                                  ",
"                                                  "
};
