/* XPM */
static char *_848d770bbd94698975a825e04005b9fsRhrOkXNTlM4WLDi[] = {
/* columns rows colors chars-per-pixel */
"50 50 77 1 ",
"  c #000017",
". c #060317",
"X c #070517",
"o c #080617",
"O c #0E0916",
"+ c #120C15",
"@ c #170F15",
"# c #191115",
"$ c #1C1314",
"% c #231714",
"& c #251914",
"* c #2A1C13",
"= c #2D1E13",
"- c #301F13",
"; c #352313",
": c #3F2A12",
"> c #412B12",
", c #573A10",
"< c #66430F",
"1 c #6A460E",
"2 c #85590D",
"3 c #885A0D",
"4 c #8F5F0C",
"5 c #94620C",
"6 c #99650B",
"7 c #9E680B",
"8 c #996A1C",
"9 c #B17609",
"0 c #BD7D08",
"q c #C68307",
"w c #D38C06",
"e c #D58D06",
"r c #DA9106",
"t c #DC9206",
"y c #E69805",
"u c #EA9B05",
"i c #EB9C05",
"p c #EC9C04",
"a c #F19F04",
"s c #F3A104",
"d c #F6A304",
"f c #FFA903",
"g c #FFAD11",
"h c #F3A118",
"j c #FFA919",
"k c #FFB01F",
"l c #FFB120",
"z c #FFB32F",
"x c #FFB42D",
"c c #FFB639",
"v c #FFB93B",
"b c #FFB93D",
"n c #FFBD4C",
"m c #FFBF52",
"M c #FFBF57",
"N c #FFC868",
"B c #211EA2",
"V c #5D5CA2",
"C c #3531FA",
"Z c #3732FF",
"A c #5041F5",
"S c #9999A2",
"D c #FFD99B",
"F c #FFDFA1",
"G c #FFDFB3",
"H c #FFE7BE",
"J c #FFE8BF",
"K c #9B98FF",
"L c #A7A0FA",
"P c #B4B2FF",
"I c #FFE9C3",
"U c #FFE9C4",
"Y c #CDCBFF",
"T c #DAD9FF",
"R c #FFF5F5",
"E c #FFFBFB",
"W c white",
/* pixels */
"                                                  ",
"                                                  ",
"                                                  ",
"                                                  ",
"                                                  ",
"                   @%%%%%%%%%%$                   ",
"                   3ffffffffff9                   ",
"                   3ffffffffff9                   ",
"              222220ffffffffffw22222.             ",
"              ffffffffffffffffffffffo             ",
"             .ffffffffffffffffffffffo             ",
"           qiiffffffffffffffffffffffiit           ",
"           rffffffffffffffffffffffffffa           ",
"         ..rffffffffffffffffffffffffffa...        ",
"        1ffffffffcWWWWWcffffffffflWWWWWmf6        ",
"        1ffffffffcWWWWWcffffffffflWWWWWmf6        ",
"        1fffffflknWWWWWMllfffffglbWWWWWNl8        ",
"        1ffffffIWWWWWWWWWWfffffFWWWWWWWWWS        ",
"        1ffffffIWWWWWWWWWWfffffFWWWWWWWWWS        ",
"        1ffffffIWWWWYKKKKLfffffFWWWWTKKKKV        ",
"        1ffffffIWWWWKZZZZAfffffFWWWWPZZZZB        ",
"        1ffffffIWWWWKZZZZAfffffFWWWWPZZZZB        ",
"     @ssdffffffIWWWWKZZZZAfffffFWWWWPZZZZChs&     ",
"     #fffffffffIWWWWKZZZZAfffffFWWWWPZZZZZjf*     ",
"     #fffffffffGREWWKZZZZAfffffDRRWWPZZZZZjf*     ",
"     #fffffffffffcWWWWWbffffffffflWWWWWmffff*     ",
"     #fffffffffffcWWWWWbffffffffflWWWWWmffff*     ",
"     #fffffffffffxUHJIUzfffffffffkUJJIUvffff*     ",
"     #ffffffffffffffffffffffffffffffffffffff*     ",
"     #ffffffffffffffffffffffffffffffffffffff*     ",
"     #ffffffffffffffffffffffffffffffffffffff*     ",
"     #ffffffffffffffffffffffffffffffffffffff*     ",
"     #ffffffffffffffffffffffffffffffffffffff*     ",
"     #ffffffffffffffffffffffffffffffffffffff*     ",
"     #ffffffffffffffffffffffffffffffffffffff*     ",
"     #ffffffffffffffffffffffffffffffffffffff*     ",
"     #ffffffffffffffffffffffffffffffffffffff*     ",
"     #ffffffffffffffffffffffffffffffffffffff*     ",
"     #fffffpyyffffffffuyyyyyffffffffyyufffff*     ",
"     #fffff< Xffffffff,    -ffffffffo >fffff*     ",
"     #fffff<  ffffffff,    =ffffffffo >fffff*     ",
"     #ffy44:  445fffff,    =fffff744X *44wff*     ",
"     #ffe       &fffff,    =fffff>       9ff*     ",
"     #ffe       &fffff,    =fffff>       9ff*     ",
"     o;;=       O;;;;;@    O;;;;;+       &;;O     ",
"                                                  ",
"                                                  ",
"                                                  ",
"                                                  ",
"                                                  "
};
