/* XPM */
static char *result[] = {
/* columns rows colors chars-per-pixel */
"50 50 108 2 ",
"   c #000017",
".  c #010117",
"X  c #020117",
"o  c #030217",
"O  c #050317",
"+  c #060317",
"@  c #080617",
"#  c #090717",
"$  c #0D0A17",
"%  c #010118",
"&  c #020218",
"*  c #030318",
"=  c #040418",
"-  c #060618",
";  c #090718",
":  c #0E0B18",
">  c #100C17",
",  c #120E17",
"<  c #150E15",
"1  c #171015",
"2  c #171117",
"3  c #191114",
"4  c #1B1416",
"5  c #1E1516",
"6  c #201514",
"7  c #201716",
"8  c #231814",
"9  c #221916",
"0  c #241A15",
"q  c #261A14",
"w  c #271B15",
"e  c #251A16",
"r  c #271C15",
"t  c #281C15",
"y  c #291D15",
"u  c #372614",
"i  c #080B2A",
"p  c #13142E",
"a  c #1D1D31",
"s  c #1D1D32",
"d  c #442E13",
"f  c #5F4011",
"g  c #62410F",
"h  c #63420F",
"j  c #6C490F",
"k  c #79520E",
"l  c #7A520E",
"z  c #7D540E",
"x  c #80550E",
"c  c #905F0C",
"v  c #91600C",
"b  c #94630C",
"n  c #91651C",
"m  c #AA720A",
"M  c #AF750A",
"N  c #B67909",
"B  c #BC7E09",
"V  c #C07F08",
"C  c #CE8906",
"Z  c #C98608",
"A  c #D68E06",
"S  c #D78F06",
"D  c #D88F06",
"F  c #E49705",
"G  c #E49805",
"H  c #E89A05",
"J  c #EF9E04",
"K  c #F1A004",
"L  c #F1A005",
"P  c #F2A004",
"I  c #F5A204",
"U  c #FFA903",
"Y  c #FFAD11",
"T  c #FFB01F",
"R  c #FFB11F",
"E  c #F1A02B",
"W  c #FFA92C",
"Q  c #FFB120",
"!  c #FFB221",
"~  c #FFBB3E",
"^  c #FFBD47",
"/  c #FFBD51",
"(  c #FFBF53",
")  c #FFC157",
"_  c #FFC362",
"`  c #FFC562",
"'  c #FFC86B",
"]  c #FFCA6C",
"[  c #FFCB6E",
"{  c #FFCC6E",
"}  c #3732FF",
"|  c #FFCF81",
" . c #FFD38A",
".. c #FFD792",
"X. c #FFDCA0",
"o. c #9B98FF",
"O. c #B4B2FF",
"+. c #FFEAC9",
"@. c #FFEFD0",
"#. c #FFF1DF",
"$. c #CDCCFF",
"%. c #DAD9FF",
"&. c #FFF7E7",
"*. c #FFF9EF",
"=. c #FFF9F0",
"-. c #FFF9F1",
";. c #FFFEFE",
":. c white",
/* pixels */
"                                                                                                    ",
"                                                                                                    ",
"                                                                                                    ",
"                                                                                                    ",
"                                                                                                    ",
"                                      < 6 6 6 6 6 6 6 6 6 6 3                                       ",
"                                      x U U U U U U U U U U m                                       ",
"                                      x U U U U U U U U U U m                                       ",
"                          X z z z z z N U U U U U U U U U U C z z z z z O                           ",
"                          o U U U U U U U U U U U U U U U U U U U U U U @                           ",
"                          O U U U U U U U U U U U U U U U U U U U U U U @                           ",
"                      V H H U U U U U U U U U U U U U U U U U U U U U U H H D                       ",
"                      A U U U U U U U U U U U U U U U U U U U U U U U U U U J                       ",
"                o + + A U U U U U U U U U U U U U U U U U U U U U U U U U U J + + O                 ",
"                g U U U U U U U U ( :.:.:.:.:._ U U U U U U U U U ! :.:.:.:.:. .U c                 ",
"                h U U U U U U U U ( :.:.:.:.:.' U U U U U U U U U ! :.:.:.:.:...U v                 ",
"                h U U U U U U ! T ` :.:.:.:.:.| Q Q U U U U U Y Q ~ :.:.:.:.:.X.! n                 ",
"                h U U U U U U &.:.:.:.:.:.:.:.:.:.:.U U U U U @.:.:.:.:.:.:.:.:.:.:.a               ",
"                h U U U U U U &.:.:.:.:.:.:.:.:.:.:.U U U U U @.:.:.:.:.:.:.:.:.:.:.s               ",
"                h U U U U U U &.:.:.:.:.$.o.o.o.o.o.U U U U U @.:.:.:.:.%.o.o.o.o.o.p               ",
"                h U U U U U U &.:.:.:.:.o.} } } } } U U U U U @.:.:.:.:.O.} } } } } i               ",
"                h U U U U U U &.:.:.:.:.o.} } } } } U U U U U @.:.:.:.:.O.} } } } } i               ",
"          < K K I U U U U U U &.:.:.:.:.o.} } } } } U U U U U @.:.:.:.:.O.} } } } } E K 8           ",
"          1 U U U U U U U U U &.:.:.:.:.o.} } } } } U U U U U @.:.:.:.:.O.} } } } } W U q           ",
"          1 U U U U U U U U U #.;.;.:.:.o.} } } } } U U U U U +.;.;.:.:.O.} } } } } W U q           ",
"          1 U U U U U U U U U U U / :.:.:.:.:.{ U U U U U U U U U ! :.:.:.:.:...U U U U q           ",
"          1 U U U U U U U U U U U / :.:.:.:.:.[ U U U U U U U U U ! :.:.:.:.:...U U U U q           ",
"          1 U U U U U U U U U U U ^ -.*.*.=.=.) U U U U U U U U U R =.*.*.*.-.] U U U U q           ",
"          1 U U U U U U U U U U U U U U U U U U U U U U U U U U U U U U U U U U U U U U q           ",
"          1 U U U U U U U U U U U U U U U U U U U U U U U U U U U U U U U U U U U U U U q           ",
"          1 U U U U U U U U U U U U U U U U U U U U U U U U U U U U U U U U U U U U U U q           ",
"          1 U U U U U U U U U U U U U U U U U U U U U U U U U U U U U U U U U U U U U U q           ",
"          1 U U U U U U U U U U U U U U U U U U U U U U U U U U U U U U U U U U U U U U q           ",
"          1 U U U U U U U U U U U U U U U U U U U U U U U U U U U U U U U U U U U U U U q           ",
"          1 U U U U U U U U U U U U U U U U U U U U U U U U U U U U U U U U U U U U U U q           ",
"          r U U U U U U U U U U U U U U U U U U U U U U U U U U U U U U U U U U U U U U t           ",
"          y U U U U U U U U U U U U U U U U U U U U U U U U U U U U U U U U U U U U U U y           ",
"          y U U U U U U U U U U U U U U U U U U U U U U U U U U U U U U U U U U U U U U y           ",
"          y U U U U U U U U U U P l l M U U U U U U U U U U B l l L U U U U U U U U U U y           ",
"        & y U U U U U U U U U U F w 4 k U U U U U U U U U U b 5 r G U U U U U U U U U U y *         ",
"        & y U U U U U U U U U U F 0 , k U U U U U U U U U U b 2 e G U U U U U U U U U U y *         ",
"        & y d d k U U U U U f d d 0 , u d d S U U U U Z d d u 2 e d d d U U U U U j d d y *         ",
"        % # # , f U U U U U d $ # # - # # 9 Z U U U U Z 7 # # - # # # y U U U U U f > # # *         ",
"        % = = : f U U U U U d ; = = = = = 7 Z U U U U Z 7 = = = = = = y U U U U U f $ = = *         ",
"        % = = : y y y y y y y ; = = = = = 7 y y y y y y 7 = = = = = = y y y y y y y $ = = *         ",
"        % = = = = = = = = = = = = = = = = = = = = = = = = = = = = = = = = = = = = = = = = *         ",
"          . . . . . . . . . . . . . . . . . . . . . . . . . . . . . . . . . . . . . . . . .         ",
"                                                                                                    ",
"                                                                                                    ",
"                                                                                                    "
};
